solid buck_converter_reference
  facet normal 0.000000 0.000000 1.000000
    outer loop
      vertex -22.5000 -10.0000 0.0000
      vertex 22.5000 -10.0000 0.0000
      vertex 22.5000 10.0000 0.0000
    endloop
  endfacet
  facet normal 0.000000 0.000000 1.000000
    outer loop
      vertex -22.5000 -10.0000 0.0000
      vertex 22.5000 10.0000 0.0000
      vertex -22.5000 10.0000 0.0000
    endloop
  endfacet
  facet normal 0.000000 0.000000 -1.000000
    outer loop
      vertex -22.5000 -10.0000 8.0000
      vertex 22.5000 10.0000 8.0000
      vertex 22.5000 -10.0000 8.0000
    endloop
  endfacet
  facet normal 0.000000 0.000000 -1.000000
    outer loop
      vertex -22.5000 -10.0000 8.0000
      vertex -22.5000 10.0000 8.0000
      vertex 22.5000 10.0000 8.0000
    endloop
  endfacet
  facet normal 0.000000 1.000000 0.000000
    outer loop
      vertex -22.5000 -10.0000 0.0000
      vertex -22.5000 -10.0000 8.0000
      vertex 22.5000 -10.0000 8.0000
    endloop
  endfacet
  facet normal 0.000000 1.000000 0.000000
    outer loop
      vertex -22.5000 -10.0000 0.0000
      vertex 22.5000 -10.0000 8.0000
      vertex 22.5000 -10.0000 0.0000
    endloop
  endfacet
  facet normal -1.000000 0.000000 0.000000
    outer loop
      vertex 22.5000 -10.0000 0.0000
      vertex 22.5000 -10.0000 8.0000
      vertex 22.5000 10.0000 8.0000
    endloop
  endfacet
  facet normal -1.000000 0.000000 0.000000
    outer loop
      vertex 22.5000 -10.0000 0.0000
      vertex 22.5000 10.0000 8.0000
      vertex 22.5000 10.0000 0.0000
    endloop
  endfacet
  facet normal 0.000000 -1.000000 0.000000
    outer loop
      vertex 22.5000 10.0000 0.0000
      vertex 22.5000 10.0000 8.0000
      vertex -22.5000 10.0000 8.0000
    endloop
  endfacet
  facet normal 0.000000 -1.000000 0.000000
    outer loop
      vertex 22.5000 10.0000 0.0000
      vertex -22.5000 10.0000 8.0000
      vertex -22.5000 10.0000 0.0000
    endloop
  endfacet
  facet normal 1.000000 0.000000 0.000000
    outer loop
      vertex -22.5000 10.0000 0.0000
      vertex -22.5000 10.0000 8.0000
      vertex -22.5000 -10.0000 8.0000
    endloop
  endfacet
  facet normal 1.000000 0.000000 0.000000
    outer loop
      vertex -22.5000 10.0000 0.0000
      vertex -22.5000 -10.0000 8.0000
      vertex -22.5000 -10.0000 0.0000
    endloop
  endfacet
  facet normal 0.000000 0.000000 1.000000
    outer loop
      vertex -22.5000 -10.0000 8.0000
      vertex -16.5000 -10.0000 8.0000
      vertex -16.5000 10.0000 8.0000
    endloop
  endfacet
  facet normal 0.000000 0.000000 1.000000
    outer loop
      vertex -22.5000 -10.0000 8.0000
      vertex -16.5000 10.0000 8.0000
      vertex -22.5000 10.0000 8.0000
    endloop
  endfacet
  facet normal 0.000000 0.000000 -1.000000
    outer loop
      vertex -22.5000 -10.0000 10.0000
      vertex -16.5000 10.0000 10.0000
      vertex -16.5000 -10.0000 10.0000
    endloop
  endfacet
  facet normal 0.000000 0.000000 -1.000000
    outer loop
      vertex -22.5000 -10.0000 10.0000
      vertex -22.5000 10.0000 10.0000
      vertex -16.5000 10.0000 10.0000
    endloop
  endfacet
  facet normal 0.000000 1.000000 0.000000
    outer loop
      vertex -22.5000 -10.0000 8.0000
      vertex -22.5000 -10.0000 10.0000
      vertex -16.5000 -10.0000 10.0000
    endloop
  endfacet
  facet normal 0.000000 1.000000 0.000000
    outer loop
      vertex -22.5000 -10.0000 8.0000
      vertex -16.5000 -10.0000 10.0000
      vertex -16.5000 -10.0000 8.0000
    endloop
  endfacet
  facet normal -1.000000 0.000000 0.000000
    outer loop
      vertex -16.5000 -10.0000 8.0000
      vertex -16.5000 -10.0000 10.0000
      vertex -16.5000 10.0000 10.0000
    endloop
  endfacet
  facet normal -1.000000 0.000000 0.000000
    outer loop
      vertex -16.5000 -10.0000 8.0000
      vertex -16.5000 10.0000 10.0000
      vertex -16.5000 10.0000 8.0000
    endloop
  endfacet
  facet normal 0.000000 -1.000000 0.000000
    outer loop
      vertex -16.5000 10.0000 8.0000
      vertex -16.5000 10.0000 10.0000
      vertex -22.5000 10.0000 10.0000
    endloop
  endfacet
  facet normal 0.000000 -1.000000 0.000000
    outer loop
      vertex -16.5000 10.0000 8.0000
      vertex -22.5000 10.0000 10.0000
      vertex -22.5000 10.0000 8.0000
    endloop
  endfacet
  facet normal 1.000000 0.000000 0.000000
    outer loop
      vertex -22.5000 10.0000 8.0000
      vertex -22.5000 10.0000 10.0000
      vertex -22.5000 -10.0000 10.0000
    endloop
  endfacet
  facet normal 1.000000 0.000000 0.000000
    outer loop
      vertex -22.5000 10.0000 8.0000
      vertex -22.5000 -10.0000 10.0000
      vertex -22.5000 -10.0000 8.0000
    endloop
  endfacet
endsolid buck_converter_reference
