solid M3_spacer_10mm_reference
  facet normal 0.000000 -0.991445 -0.130526
    outer loop
      vertex 0.0000 3.2000 0.0000
      vertex 10.0000 3.0910 0.8282
      vertex 0.0000 3.0910 0.8282
    endloop
  endfacet
  facet normal 0.000000 -0.991445 -0.130526
    outer loop
      vertex 0.0000 3.2000 0.0000
      vertex 10.0000 3.2000 0.0000
      vertex 10.0000 3.0910 0.8282
    endloop
  endfacet
  facet normal 0.000000 0.991445 0.130526
    outer loop
      vertex 0.0000 1.7000 0.0000
      vertex 0.0000 1.6421 0.4400
      vertex 10.0000 1.6421 0.4400
    endloop
  endfacet
  facet normal 0.000000 0.991445 0.130526
    outer loop
      vertex 0.0000 1.7000 0.0000
      vertex 10.0000 1.6421 0.4400
      vertex 10.0000 1.7000 0.0000
    endloop
  endfacet
  facet normal 1.000000 0.000000 0.000000
    outer loop
      vertex 0.0000 3.2000 0.0000
      vertex 0.0000 3.0910 0.8282
      vertex 0.0000 1.6421 0.4400
    endloop
  endfacet
  facet normal 1.000000 0.000000 0.000000
    outer loop
      vertex 0.0000 3.2000 0.0000
      vertex 0.0000 1.6421 0.4400
      vertex 0.0000 1.7000 0.0000
    endloop
  endfacet
  facet normal -1.000000 0.000000 0.000000
    outer loop
      vertex 10.0000 3.2000 0.0000
      vertex 10.0000 1.6421 0.4400
      vertex 10.0000 3.0910 0.8282
    endloop
  endfacet
  facet normal -1.000000 0.000000 0.000000
    outer loop
      vertex 10.0000 3.2000 0.0000
      vertex 10.0000 1.7000 0.0000
      vertex 10.0000 1.6421 0.4400
    endloop
  endfacet
  facet normal 0.000000 -0.923880 -0.382683
    outer loop
      vertex 0.0000 3.0910 0.8282
      vertex 10.0000 2.7713 1.6000
      vertex 0.0000 2.7713 1.6000
    endloop
  endfacet
  facet normal 0.000000 -0.923880 -0.382683
    outer loop
      vertex 0.0000 3.0910 0.8282
      vertex 10.0000 3.0910 0.8282
      vertex 10.0000 2.7713 1.6000
    endloop
  endfacet
  facet normal 0.000000 0.923880 0.382683
    outer loop
      vertex 0.0000 1.6421 0.4400
      vertex 0.0000 1.4722 0.8500
      vertex 10.0000 1.4722 0.8500
    endloop
  endfacet
  facet normal 0.000000 0.923880 0.382683
    outer loop
      vertex 0.0000 1.6421 0.4400
      vertex 10.0000 1.4722 0.8500
      vertex 10.0000 1.6421 0.4400
    endloop
  endfacet
  facet normal 1.000000 0.000000 0.000000
    outer loop
      vertex 0.0000 3.0910 0.8282
      vertex 0.0000 2.7713 1.6000
      vertex 0.0000 1.4722 0.8500
    endloop
  endfacet
  facet normal 1.000000 0.000000 0.000000
    outer loop
      vertex 0.0000 3.0910 0.8282
      vertex 0.0000 1.4722 0.8500
      vertex 0.0000 1.6421 0.4400
    endloop
  endfacet
  facet normal -1.000000 0.000000 0.000000
    outer loop
      vertex 10.0000 3.0910 0.8282
      vertex 10.0000 1.4722 0.8500
      vertex 10.0000 2.7713 1.6000
    endloop
  endfacet
  facet normal -1.000000 0.000000 0.000000
    outer loop
      vertex 10.0000 3.0910 0.8282
      vertex 10.0000 1.6421 0.4400
      vertex 10.0000 1.4722 0.8500
    endloop
  endfacet
  facet normal 0.000000 -0.793353 -0.608761
    outer loop
      vertex 0.0000 2.7713 1.6000
      vertex 10.0000 2.2627 2.2627
      vertex 0.0000 2.2627 2.2627
    endloop
  endfacet
  facet normal 0.000000 -0.793353 -0.608761
    outer loop
      vertex 0.0000 2.7713 1.6000
      vertex 10.0000 2.7713 1.6000
      vertex 10.0000 2.2627 2.2627
    endloop
  endfacet
  facet normal 0.000000 0.793353 0.608761
    outer loop
      vertex 0.0000 1.4722 0.8500
      vertex 0.0000 1.2021 1.2021
      vertex 10.0000 1.2021 1.2021
    endloop
  endfacet
  facet normal 0.000000 0.793353 0.608761
    outer loop
      vertex 0.0000 1.4722 0.8500
      vertex 10.0000 1.2021 1.2021
      vertex 10.0000 1.4722 0.8500
    endloop
  endfacet
  facet normal 1.000000 0.000000 0.000000
    outer loop
      vertex 0.0000 2.7713 1.6000
      vertex 0.0000 2.2627 2.2627
      vertex 0.0000 1.2021 1.2021
    endloop
  endfacet
  facet normal 1.000000 0.000000 0.000000
    outer loop
      vertex 0.0000 2.7713 1.6000
      vertex 0.0000 1.2021 1.2021
      vertex 0.0000 1.4722 0.8500
    endloop
  endfacet
  facet normal -1.000000 0.000000 0.000000
    outer loop
      vertex 10.0000 2.7713 1.6000
      vertex 10.0000 1.2021 1.2021
      vertex 10.0000 2.2627 2.2627
    endloop
  endfacet
  facet normal -1.000000 0.000000 0.000000
    outer loop
      vertex 10.0000 2.7713 1.6000
      vertex 10.0000 1.4722 0.8500
      vertex 10.0000 1.2021 1.2021
    endloop
  endfacet
  facet normal 0.000000 -0.608761 -0.793353
    outer loop
      vertex 0.0000 2.2627 2.2627
      vertex 10.0000 1.6000 2.7713
      vertex 0.0000 1.6000 2.7713
    endloop
  endfacet
  facet normal 0.000000 -0.608761 -0.793353
    outer loop
      vertex 0.0000 2.2627 2.2627
      vertex 10.0000 2.2627 2.2627
      vertex 10.0000 1.6000 2.7713
    endloop
  endfacet
  facet normal 0.000000 0.608761 0.793353
    outer loop
      vertex 0.0000 1.2021 1.2021
      vertex 0.0000 0.8500 1.4722
      vertex 10.0000 0.8500 1.4722
    endloop
  endfacet
  facet normal 0.000000 0.608761 0.793353
    outer loop
      vertex 0.0000 1.2021 1.2021
      vertex 10.0000 0.8500 1.4722
      vertex 10.0000 1.2021 1.2021
    endloop
  endfacet
  facet normal 1.000000 0.000000 0.000000
    outer loop
      vertex 0.0000 2.2627 2.2627
      vertex 0.0000 1.6000 2.7713
      vertex 0.0000 0.8500 1.4722
    endloop
  endfacet
  facet normal 1.000000 0.000000 0.000000
    outer loop
      vertex 0.0000 2.2627 2.2627
      vertex 0.0000 0.8500 1.4722
      vertex 0.0000 1.2021 1.2021
    endloop
  endfacet
  facet normal -1.000000 0.000000 0.000000
    outer loop
      vertex 10.0000 2.2627 2.2627
      vertex 10.0000 0.8500 1.4722
      vertex 10.0000 1.6000 2.7713
    endloop
  endfacet
  facet normal -1.000000 0.000000 0.000000
    outer loop
      vertex 10.0000 2.2627 2.2627
      vertex 10.0000 1.2021 1.2021
      vertex 10.0000 0.8500 1.4722
    endloop
  endfacet
  facet normal 0.000000 -0.382683 -0.923880
    outer loop
      vertex 0.0000 1.6000 2.7713
      vertex 10.0000 0.8282 3.0910
      vertex 0.0000 0.8282 3.0910
    endloop
  endfacet
  facet normal 0.000000 -0.382683 -0.923880
    outer loop
      vertex 0.0000 1.6000 2.7713
      vertex 10.0000 1.6000 2.7713
      vertex 10.0000 0.8282 3.0910
    endloop
  endfacet
  facet normal 0.000000 0.382683 0.923880
    outer loop
      vertex 0.0000 0.8500 1.4722
      vertex 0.0000 0.4400 1.6421
      vertex 10.0000 0.4400 1.6421
    endloop
  endfacet
  facet normal 0.000000 0.382683 0.923880
    outer loop
      vertex 0.0000 0.8500 1.4722
      vertex 10.0000 0.4400 1.6421
      vertex 10.0000 0.8500 1.4722
    endloop
  endfacet
  facet normal 1.000000 0.000000 0.000000
    outer loop
      vertex 0.0000 1.6000 2.7713
      vertex 0.0000 0.8282 3.0910
      vertex 0.0000 0.4400 1.6421
    endloop
  endfacet
  facet normal 1.000000 0.000000 0.000000
    outer loop
      vertex 0.0000 1.6000 2.7713
      vertex 0.0000 0.4400 1.6421
      vertex 0.0000 0.8500 1.4722
    endloop
  endfacet
  facet normal -1.000000 0.000000 0.000000
    outer loop
      vertex 10.0000 1.6000 2.7713
      vertex 10.0000 0.4400 1.6421
      vertex 10.0000 0.8282 3.0910
    endloop
  endfacet
  facet normal -1.000000 0.000000 0.000000
    outer loop
      vertex 10.0000 1.6000 2.7713
      vertex 10.0000 0.8500 1.4722
      vertex 10.0000 0.4400 1.6421
    endloop
  endfacet
  facet normal 0.000000 -0.130526 -0.991445
    outer loop
      vertex 0.0000 0.8282 3.0910
      vertex 10.0000 0.0000 3.2000
      vertex 0.0000 0.0000 3.2000
    endloop
  endfacet
  facet normal 0.000000 -0.130526 -0.991445
    outer loop
      vertex 0.0000 0.8282 3.0910
      vertex 10.0000 0.8282 3.0910
      vertex 10.0000 0.0000 3.2000
    endloop
  endfacet
  facet normal 0.000000 0.130526 0.991445
    outer loop
      vertex 0.0000 0.4400 1.6421
      vertex 0.0000 0.0000 1.7000
      vertex 10.0000 0.0000 1.7000
    endloop
  endfacet
  facet normal 0.000000 0.130526 0.991445
    outer loop
      vertex 0.0000 0.4400 1.6421
      vertex 10.0000 0.0000 1.7000
      vertex 10.0000 0.4400 1.6421
    endloop
  endfacet
  facet normal 1.000000 0.000000 0.000000
    outer loop
      vertex 0.0000 0.8282 3.0910
      vertex 0.0000 0.0000 3.2000
      vertex 0.0000 0.0000 1.7000
    endloop
  endfacet
  facet normal 1.000000 0.000000 0.000000
    outer loop
      vertex 0.0000 0.8282 3.0910
      vertex 0.0000 0.0000 1.7000
      vertex 0.0000 0.4400 1.6421
    endloop
  endfacet
  facet normal -1.000000 0.000000 0.000000
    outer loop
      vertex 10.0000 0.8282 3.0910
      vertex 10.0000 0.0000 1.7000
      vertex 10.0000 0.0000 3.2000
    endloop
  endfacet
  facet normal -1.000000 0.000000 0.000000
    outer loop
      vertex 10.0000 0.8282 3.0910
      vertex 10.0000 0.4400 1.6421
      vertex 10.0000 0.0000 1.7000
    endloop
  endfacet
  facet normal 0.000000 0.130526 -0.991445
    outer loop
      vertex 0.0000 0.0000 3.2000
      vertex 10.0000 -0.8282 3.0910
      vertex 0.0000 -0.8282 3.0910
    endloop
  endfacet
  facet normal 0.000000 0.130526 -0.991445
    outer loop
      vertex 0.0000 0.0000 3.2000
      vertex 10.0000 0.0000 3.2000
      vertex 10.0000 -0.8282 3.0910
    endloop
  endfacet
  facet normal 0.000000 -0.130526 0.991445
    outer loop
      vertex 0.0000 0.0000 1.7000
      vertex 0.0000 -0.4400 1.6421
      vertex 10.0000 -0.4400 1.6421
    endloop
  endfacet
  facet normal 0.000000 -0.130526 0.991445
    outer loop
      vertex 0.0000 0.0000 1.7000
      vertex 10.0000 -0.4400 1.6421
      vertex 10.0000 0.0000 1.7000
    endloop
  endfacet
  facet normal 1.000000 0.000000 0.000000
    outer loop
      vertex 0.0000 0.0000 3.2000
      vertex 0.0000 -0.8282 3.0910
      vertex 0.0000 -0.4400 1.6421
    endloop
  endfacet
  facet normal 1.000000 0.000000 0.000000
    outer loop
      vertex 0.0000 0.0000 3.2000
      vertex 0.0000 -0.4400 1.6421
      vertex 0.0000 0.0000 1.7000
    endloop
  endfacet
  facet normal -1.000000 0.000000 0.000000
    outer loop
      vertex 10.0000 0.0000 3.2000
      vertex 10.0000 -0.4400 1.6421
      vertex 10.0000 -0.8282 3.0910
    endloop
  endfacet
  facet normal -1.000000 0.000000 0.000000
    outer loop
      vertex 10.0000 0.0000 3.2000
      vertex 10.0000 0.0000 1.7000
      vertex 10.0000 -0.4400 1.6421
    endloop
  endfacet
  facet normal 0.000000 0.382683 -0.923880
    outer loop
      vertex 0.0000 -0.8282 3.0910
      vertex 10.0000 -1.6000 2.7713
      vertex 0.0000 -1.6000 2.7713
    endloop
  endfacet
  facet normal 0.000000 0.382683 -0.923880
    outer loop
      vertex 0.0000 -0.8282 3.0910
      vertex 10.0000 -0.8282 3.0910
      vertex 10.0000 -1.6000 2.7713
    endloop
  endfacet
  facet normal 0.000000 -0.382683 0.923880
    outer loop
      vertex 0.0000 -0.4400 1.6421
      vertex 0.0000 -0.8500 1.4722
      vertex 10.0000 -0.8500 1.4722
    endloop
  endfacet
  facet normal 0.000000 -0.382683 0.923880
    outer loop
      vertex 0.0000 -0.4400 1.6421
      vertex 10.0000 -0.8500 1.4722
      vertex 10.0000 -0.4400 1.6421
    endloop
  endfacet
  facet normal 1.000000 0.000000 0.000000
    outer loop
      vertex 0.0000 -0.8282 3.0910
      vertex 0.0000 -1.6000 2.7713
      vertex 0.0000 -0.8500 1.4722
    endloop
  endfacet
  facet normal 1.000000 0.000000 0.000000
    outer loop
      vertex 0.0000 -0.8282 3.0910
      vertex 0.0000 -0.8500 1.4722
      vertex 0.0000 -0.4400 1.6421
    endloop
  endfacet
  facet normal -1.000000 0.000000 0.000000
    outer loop
      vertex 10.0000 -0.8282 3.0910
      vertex 10.0000 -0.8500 1.4722
      vertex 10.0000 -1.6000 2.7713
    endloop
  endfacet
  facet normal -1.000000 0.000000 0.000000
    outer loop
      vertex 10.0000 -0.8282 3.0910
      vertex 10.0000 -0.4400 1.6421
      vertex 10.0000 -0.8500 1.4722
    endloop
  endfacet
  facet normal 0.000000 0.608761 -0.793353
    outer loop
      vertex 0.0000 -1.6000 2.7713
      vertex 10.0000 -2.2627 2.2627
      vertex 0.0000 -2.2627 2.2627
    endloop
  endfacet
  facet normal 0.000000 0.608761 -0.793353
    outer loop
      vertex 0.0000 -1.6000 2.7713
      vertex 10.0000 -1.6000 2.7713
      vertex 10.0000 -2.2627 2.2627
    endloop
  endfacet
  facet normal 0.000000 -0.608761 0.793353
    outer loop
      vertex 0.0000 -0.8500 1.4722
      vertex 0.0000 -1.2021 1.2021
      vertex 10.0000 -1.2021 1.2021
    endloop
  endfacet
  facet normal 0.000000 -0.608761 0.793353
    outer loop
      vertex 0.0000 -0.8500 1.4722
      vertex 10.0000 -1.2021 1.2021
      vertex 10.0000 -0.8500 1.4722
    endloop
  endfacet
  facet normal 1.000000 0.000000 0.000000
    outer loop
      vertex 0.0000 -1.6000 2.7713
      vertex 0.0000 -2.2627 2.2627
      vertex 0.0000 -1.2021 1.2021
    endloop
  endfacet
  facet normal 1.000000 0.000000 0.000000
    outer loop
      vertex 0.0000 -1.6000 2.7713
      vertex 0.0000 -1.2021 1.2021
      vertex 0.0000 -0.8500 1.4722
    endloop
  endfacet
  facet normal -1.000000 0.000000 0.000000
    outer loop
      vertex 10.0000 -1.6000 2.7713
      vertex 10.0000 -1.2021 1.2021
      vertex 10.0000 -2.2627 2.2627
    endloop
  endfacet
  facet normal -1.000000 0.000000 0.000000
    outer loop
      vertex 10.0000 -1.6000 2.7713
      vertex 10.0000 -0.8500 1.4722
      vertex 10.0000 -1.2021 1.2021
    endloop
  endfacet
  facet normal 0.000000 0.793353 -0.608761
    outer loop
      vertex 0.0000 -2.2627 2.2627
      vertex 10.0000 -2.7713 1.6000
      vertex 0.0000 -2.7713 1.6000
    endloop
  endfacet
  facet normal 0.000000 0.793353 -0.608761
    outer loop
      vertex 0.0000 -2.2627 2.2627
      vertex 10.0000 -2.2627 2.2627
      vertex 10.0000 -2.7713 1.6000
    endloop
  endfacet
  facet normal 0.000000 -0.793353 0.608761
    outer loop
      vertex 0.0000 -1.2021 1.2021
      vertex 0.0000 -1.4722 0.8500
      vertex 10.0000 -1.4722 0.8500
    endloop
  endfacet
  facet normal 0.000000 -0.793353 0.608761
    outer loop
      vertex 0.0000 -1.2021 1.2021
      vertex 10.0000 -1.4722 0.8500
      vertex 10.0000 -1.2021 1.2021
    endloop
  endfacet
  facet normal 1.000000 0.000000 0.000000
    outer loop
      vertex 0.0000 -2.2627 2.2627
      vertex 0.0000 -2.7713 1.6000
      vertex 0.0000 -1.4722 0.8500
    endloop
  endfacet
  facet normal 1.000000 0.000000 0.000000
    outer loop
      vertex 0.0000 -2.2627 2.2627
      vertex 0.0000 -1.4722 0.8500
      vertex 0.0000 -1.2021 1.2021
    endloop
  endfacet
  facet normal -1.000000 0.000000 0.000000
    outer loop
      vertex 10.0000 -2.2627 2.2627
      vertex 10.0000 -1.4722 0.8500
      vertex 10.0000 -2.7713 1.6000
    endloop
  endfacet
  facet normal -1.000000 0.000000 0.000000
    outer loop
      vertex 10.0000 -2.2627 2.2627
      vertex 10.0000 -1.2021 1.2021
      vertex 10.0000 -1.4722 0.8500
    endloop
  endfacet
  facet normal 0.000000 0.923880 -0.382683
    outer loop
      vertex 0.0000 -2.7713 1.6000
      vertex 10.0000 -3.0910 0.8282
      vertex 0.0000 -3.0910 0.8282
    endloop
  endfacet
  facet normal 0.000000 0.923880 -0.382683
    outer loop
      vertex 0.0000 -2.7713 1.6000
      vertex 10.0000 -2.7713 1.6000
      vertex 10.0000 -3.0910 0.8282
    endloop
  endfacet
  facet normal 0.000000 -0.923880 0.382683
    outer loop
      vertex 0.0000 -1.4722 0.8500
      vertex 0.0000 -1.6421 0.4400
      vertex 10.0000 -1.6421 0.4400
    endloop
  endfacet
  facet normal 0.000000 -0.923880 0.382683
    outer loop
      vertex 0.0000 -1.4722 0.8500
      vertex 10.0000 -1.6421 0.4400
      vertex 10.0000 -1.4722 0.8500
    endloop
  endfacet
  facet normal 1.000000 0.000000 0.000000
    outer loop
      vertex 0.0000 -2.7713 1.6000
      vertex 0.0000 -3.0910 0.8282
      vertex 0.0000 -1.6421 0.4400
    endloop
  endfacet
  facet normal 1.000000 0.000000 0.000000
    outer loop
      vertex 0.0000 -2.7713 1.6000
      vertex 0.0000 -1.6421 0.4400
      vertex 0.0000 -1.4722 0.8500
    endloop
  endfacet
  facet normal -1.000000 0.000000 0.000000
    outer loop
      vertex 10.0000 -2.7713 1.6000
      vertex 10.0000 -1.6421 0.4400
      vertex 10.0000 -3.0910 0.8282
    endloop
  endfacet
  facet normal -1.000000 0.000000 0.000000
    outer loop
      vertex 10.0000 -2.7713 1.6000
      vertex 10.0000 -1.4722 0.8500
      vertex 10.0000 -1.6421 0.4400
    endloop
  endfacet
  facet normal 0.000000 0.991445 -0.130526
    outer loop
      vertex 0.0000 -3.0910 0.8282
      vertex 10.0000 -3.2000 0.0000
      vertex 0.0000 -3.2000 0.0000
    endloop
  endfacet
  facet normal 0.000000 0.991445 -0.130526
    outer loop
      vertex 0.0000 -3.0910 0.8282
      vertex 10.0000 -3.0910 0.8282
      vertex 10.0000 -3.2000 0.0000
    endloop
  endfacet
  facet normal 0.000000 -0.991445 0.130526
    outer loop
      vertex 0.0000 -1.6421 0.4400
      vertex 0.0000 -1.7000 0.0000
      vertex 10.0000 -1.7000 0.0000
    endloop
  endfacet
  facet normal 0.000000 -0.991445 0.130526
    outer loop
      vertex 0.0000 -1.6421 0.4400
      vertex 10.0000 -1.7000 0.0000
      vertex 10.0000 -1.6421 0.4400
    endloop
  endfacet
  facet normal 1.000000 0.000000 0.000000
    outer loop
      vertex 0.0000 -3.0910 0.8282
      vertex 0.0000 -3.2000 0.0000
      vertex 0.0000 -1.7000 0.0000
    endloop
  endfacet
  facet normal 1.000000 0.000000 0.000000
    outer loop
      vertex 0.0000 -3.0910 0.8282
      vertex 0.0000 -1.7000 0.0000
      vertex 0.0000 -1.6421 0.4400
    endloop
  endfacet
  facet normal -1.000000 0.000000 0.000000
    outer loop
      vertex 10.0000 -3.0910 0.8282
      vertex 10.0000 -1.7000 0.0000
      vertex 10.0000 -3.2000 0.0000
    endloop
  endfacet
  facet normal -1.000000 0.000000 0.000000
    outer loop
      vertex 10.0000 -3.0910 0.8282
      vertex 10.0000 -1.6421 0.4400
      vertex 10.0000 -1.7000 0.0000
    endloop
  endfacet
  facet normal 0.000000 0.991445 0.130526
    outer loop
      vertex 0.0000 -3.2000 0.0000
      vertex 10.0000 -3.0910 -0.8282
      vertex 0.0000 -3.0910 -0.8282
    endloop
  endfacet
  facet normal 0.000000 0.991445 0.130526
    outer loop
      vertex 0.0000 -3.2000 0.0000
      vertex 10.0000 -3.2000 0.0000
      vertex 10.0000 -3.0910 -0.8282
    endloop
  endfacet
  facet normal 0.000000 -0.991445 -0.130526
    outer loop
      vertex 0.0000 -1.7000 0.0000
      vertex 0.0000 -1.6421 -0.4400
      vertex 10.0000 -1.6421 -0.4400
    endloop
  endfacet
  facet normal 0.000000 -0.991445 -0.130526
    outer loop
      vertex 0.0000 -1.7000 0.0000
      vertex 10.0000 -1.6421 -0.4400
      vertex 10.0000 -1.7000 0.0000
    endloop
  endfacet
  facet normal 1.000000 0.000000 0.000000
    outer loop
      vertex 0.0000 -3.2000 0.0000
      vertex 0.0000 -3.0910 -0.8282
      vertex 0.0000 -1.6421 -0.4400
    endloop
  endfacet
  facet normal 1.000000 0.000000 0.000000
    outer loop
      vertex 0.0000 -3.2000 0.0000
      vertex 0.0000 -1.6421 -0.4400
      vertex 0.0000 -1.7000 0.0000
    endloop
  endfacet
  facet normal -1.000000 0.000000 0.000000
    outer loop
      vertex 10.0000 -3.2000 0.0000
      vertex 10.0000 -1.6421 -0.4400
      vertex 10.0000 -3.0910 -0.8282
    endloop
  endfacet
  facet normal -1.000000 0.000000 0.000000
    outer loop
      vertex 10.0000 -3.2000 0.0000
      vertex 10.0000 -1.7000 0.0000
      vertex 10.0000 -1.6421 -0.4400
    endloop
  endfacet
  facet normal 0.000000 0.923880 0.382683
    outer loop
      vertex 0.0000 -3.0910 -0.8282
      vertex 10.0000 -2.7713 -1.6000
      vertex 0.0000 -2.7713 -1.6000
    endloop
  endfacet
  facet normal 0.000000 0.923880 0.382683
    outer loop
      vertex 0.0000 -3.0910 -0.8282
      vertex 10.0000 -3.0910 -0.8282
      vertex 10.0000 -2.7713 -1.6000
    endloop
  endfacet
  facet normal 0.000000 -0.923880 -0.382683
    outer loop
      vertex 0.0000 -1.6421 -0.4400
      vertex 0.0000 -1.4722 -0.8500
      vertex 10.0000 -1.4722 -0.8500
    endloop
  endfacet
  facet normal 0.000000 -0.923880 -0.382683
    outer loop
      vertex 0.0000 -1.6421 -0.4400
      vertex 10.0000 -1.4722 -0.8500
      vertex 10.0000 -1.6421 -0.4400
    endloop
  endfacet
  facet normal 1.000000 0.000000 0.000000
    outer loop
      vertex 0.0000 -3.0910 -0.8282
      vertex 0.0000 -2.7713 -1.6000
      vertex 0.0000 -1.4722 -0.8500
    endloop
  endfacet
  facet normal 1.000000 0.000000 0.000000
    outer loop
      vertex 0.0000 -3.0910 -0.8282
      vertex 0.0000 -1.4722 -0.8500
      vertex 0.0000 -1.6421 -0.4400
    endloop
  endfacet
  facet normal -1.000000 0.000000 0.000000
    outer loop
      vertex 10.0000 -3.0910 -0.8282
      vertex 10.0000 -1.4722 -0.8500
      vertex 10.0000 -2.7713 -1.6000
    endloop
  endfacet
  facet normal -1.000000 0.000000 0.000000
    outer loop
      vertex 10.0000 -3.0910 -0.8282
      vertex 10.0000 -1.6421 -0.4400
      vertex 10.0000 -1.4722 -0.8500
    endloop
  endfacet
  facet normal 0.000000 0.793353 0.608761
    outer loop
      vertex 0.0000 -2.7713 -1.6000
      vertex 10.0000 -2.2627 -2.2627
      vertex 0.0000 -2.2627 -2.2627
    endloop
  endfacet
  facet normal 0.000000 0.793353 0.608761
    outer loop
      vertex 0.0000 -2.7713 -1.6000
      vertex 10.0000 -2.7713 -1.6000
      vertex 10.0000 -2.2627 -2.2627
    endloop
  endfacet
  facet normal 0.000000 -0.793353 -0.608761
    outer loop
      vertex 0.0000 -1.4722 -0.8500
      vertex 0.0000 -1.2021 -1.2021
      vertex 10.0000 -1.2021 -1.2021
    endloop
  endfacet
  facet normal 0.000000 -0.793353 -0.608761
    outer loop
      vertex 0.0000 -1.4722 -0.8500
      vertex 10.0000 -1.2021 -1.2021
      vertex 10.0000 -1.4722 -0.8500
    endloop
  endfacet
  facet normal 1.000000 0.000000 0.000000
    outer loop
      vertex 0.0000 -2.7713 -1.6000
      vertex 0.0000 -2.2627 -2.2627
      vertex 0.0000 -1.2021 -1.2021
    endloop
  endfacet
  facet normal 1.000000 0.000000 0.000000
    outer loop
      vertex 0.0000 -2.7713 -1.6000
      vertex 0.0000 -1.2021 -1.2021
      vertex 0.0000 -1.4722 -0.8500
    endloop
  endfacet
  facet normal -1.000000 0.000000 0.000000
    outer loop
      vertex 10.0000 -2.7713 -1.6000
      vertex 10.0000 -1.2021 -1.2021
      vertex 10.0000 -2.2627 -2.2627
    endloop
  endfacet
  facet normal -1.000000 0.000000 0.000000
    outer loop
      vertex 10.0000 -2.7713 -1.6000
      vertex 10.0000 -1.4722 -0.8500
      vertex 10.0000 -1.2021 -1.2021
    endloop
  endfacet
  facet normal 0.000000 0.608761 0.793353
    outer loop
      vertex 0.0000 -2.2627 -2.2627
      vertex 10.0000 -1.6000 -2.7713
      vertex 0.0000 -1.6000 -2.7713
    endloop
  endfacet
  facet normal 0.000000 0.608761 0.793353
    outer loop
      vertex 0.0000 -2.2627 -2.2627
      vertex 10.0000 -2.2627 -2.2627
      vertex 10.0000 -1.6000 -2.7713
    endloop
  endfacet
  facet normal 0.000000 -0.608761 -0.793353
    outer loop
      vertex 0.0000 -1.2021 -1.2021
      vertex 0.0000 -0.8500 -1.4722
      vertex 10.0000 -0.8500 -1.4722
    endloop
  endfacet
  facet normal 0.000000 -0.608761 -0.793353
    outer loop
      vertex 0.0000 -1.2021 -1.2021
      vertex 10.0000 -0.8500 -1.4722
      vertex 10.0000 -1.2021 -1.2021
    endloop
  endfacet
  facet normal 1.000000 0.000000 0.000000
    outer loop
      vertex 0.0000 -2.2627 -2.2627
      vertex 0.0000 -1.6000 -2.7713
      vertex 0.0000 -0.8500 -1.4722
    endloop
  endfacet
  facet normal 1.000000 0.000000 0.000000
    outer loop
      vertex 0.0000 -2.2627 -2.2627
      vertex 0.0000 -0.8500 -1.4722
      vertex 0.0000 -1.2021 -1.2021
    endloop
  endfacet
  facet normal -1.000000 0.000000 0.000000
    outer loop
      vertex 10.0000 -2.2627 -2.2627
      vertex 10.0000 -0.8500 -1.4722
      vertex 10.0000 -1.6000 -2.7713
    endloop
  endfacet
  facet normal -1.000000 0.000000 0.000000
    outer loop
      vertex 10.0000 -2.2627 -2.2627
      vertex 10.0000 -1.2021 -1.2021
      vertex 10.0000 -0.8500 -1.4722
    endloop
  endfacet
  facet normal 0.000000 0.382683 0.923880
    outer loop
      vertex 0.0000 -1.6000 -2.7713
      vertex 10.0000 -0.8282 -3.0910
      vertex 0.0000 -0.8282 -3.0910
    endloop
  endfacet
  facet normal 0.000000 0.382683 0.923880
    outer loop
      vertex 0.0000 -1.6000 -2.7713
      vertex 10.0000 -1.6000 -2.7713
      vertex 10.0000 -0.8282 -3.0910
    endloop
  endfacet
  facet normal 0.000000 -0.382683 -0.923880
    outer loop
      vertex 0.0000 -0.8500 -1.4722
      vertex 0.0000 -0.4400 -1.6421
      vertex 10.0000 -0.4400 -1.6421
    endloop
  endfacet
  facet normal 0.000000 -0.382683 -0.923880
    outer loop
      vertex 0.0000 -0.8500 -1.4722
      vertex 10.0000 -0.4400 -1.6421
      vertex 10.0000 -0.8500 -1.4722
    endloop
  endfacet
  facet normal 1.000000 0.000000 0.000000
    outer loop
      vertex 0.0000 -1.6000 -2.7713
      vertex 0.0000 -0.8282 -3.0910
      vertex 0.0000 -0.4400 -1.6421
    endloop
  endfacet
  facet normal 1.000000 0.000000 0.000000
    outer loop
      vertex 0.0000 -1.6000 -2.7713
      vertex 0.0000 -0.4400 -1.6421
      vertex 0.0000 -0.8500 -1.4722
    endloop
  endfacet
  facet normal -1.000000 0.000000 0.000000
    outer loop
      vertex 10.0000 -1.6000 -2.7713
      vertex 10.0000 -0.4400 -1.6421
      vertex 10.0000 -0.8282 -3.0910
    endloop
  endfacet
  facet normal -1.000000 0.000000 0.000000
    outer loop
      vertex 10.0000 -1.6000 -2.7713
      vertex 10.0000 -0.8500 -1.4722
      vertex 10.0000 -0.4400 -1.6421
    endloop
  endfacet
  facet normal 0.000000 0.130526 0.991445
    outer loop
      vertex 0.0000 -0.8282 -3.0910
      vertex 10.0000 -0.0000 -3.2000
      vertex 0.0000 -0.0000 -3.2000
    endloop
  endfacet
  facet normal 0.000000 0.130526 0.991445
    outer loop
      vertex 0.0000 -0.8282 -3.0910
      vertex 10.0000 -0.8282 -3.0910
      vertex 10.0000 -0.0000 -3.2000
    endloop
  endfacet
  facet normal 0.000000 -0.130526 -0.991445
    outer loop
      vertex 0.0000 -0.4400 -1.6421
      vertex 0.0000 -0.0000 -1.7000
      vertex 10.0000 -0.0000 -1.7000
    endloop
  endfacet
  facet normal 0.000000 -0.130526 -0.991445
    outer loop
      vertex 0.0000 -0.4400 -1.6421
      vertex 10.0000 -0.0000 -1.7000
      vertex 10.0000 -0.4400 -1.6421
    endloop
  endfacet
  facet normal 1.000000 0.000000 0.000000
    outer loop
      vertex 0.0000 -0.8282 -3.0910
      vertex 0.0000 -0.0000 -3.2000
      vertex 0.0000 -0.0000 -1.7000
    endloop
  endfacet
  facet normal 1.000000 0.000000 0.000000
    outer loop
      vertex 0.0000 -0.8282 -3.0910
      vertex 0.0000 -0.0000 -1.7000
      vertex 0.0000 -0.4400 -1.6421
    endloop
  endfacet
  facet normal -1.000000 0.000000 0.000000
    outer loop
      vertex 10.0000 -0.8282 -3.0910
      vertex 10.0000 -0.0000 -1.7000
      vertex 10.0000 -0.0000 -3.2000
    endloop
  endfacet
  facet normal -1.000000 0.000000 0.000000
    outer loop
      vertex 10.0000 -0.8282 -3.0910
      vertex 10.0000 -0.4400 -1.6421
      vertex 10.0000 -0.0000 -1.7000
    endloop
  endfacet
  facet normal 0.000000 -0.130526 0.991445
    outer loop
      vertex 0.0000 -0.0000 -3.2000
      vertex 10.0000 0.8282 -3.0910
      vertex 0.0000 0.8282 -3.0910
    endloop
  endfacet
  facet normal 0.000000 -0.130526 0.991445
    outer loop
      vertex 0.0000 -0.0000 -3.2000
      vertex 10.0000 -0.0000 -3.2000
      vertex 10.0000 0.8282 -3.0910
    endloop
  endfacet
  facet normal 0.000000 0.130526 -0.991445
    outer loop
      vertex 0.0000 -0.0000 -1.7000
      vertex 0.0000 0.4400 -1.6421
      vertex 10.0000 0.4400 -1.6421
    endloop
  endfacet
  facet normal 0.000000 0.130526 -0.991445
    outer loop
      vertex 0.0000 -0.0000 -1.7000
      vertex 10.0000 0.4400 -1.6421
      vertex 10.0000 -0.0000 -1.7000
    endloop
  endfacet
  facet normal 1.000000 0.000000 0.000000
    outer loop
      vertex 0.0000 -0.0000 -3.2000
      vertex 0.0000 0.8282 -3.0910
      vertex 0.0000 0.4400 -1.6421
    endloop
  endfacet
  facet normal 1.000000 0.000000 0.000000
    outer loop
      vertex 0.0000 -0.0000 -3.2000
      vertex 0.0000 0.4400 -1.6421
      vertex 0.0000 -0.0000 -1.7000
    endloop
  endfacet
  facet normal -1.000000 0.000000 0.000000
    outer loop
      vertex 10.0000 -0.0000 -3.2000
      vertex 10.0000 0.4400 -1.6421
      vertex 10.0000 0.8282 -3.0910
    endloop
  endfacet
  facet normal -1.000000 0.000000 0.000000
    outer loop
      vertex 10.0000 -0.0000 -3.2000
      vertex 10.0000 -0.0000 -1.7000
      vertex 10.0000 0.4400 -1.6421
    endloop
  endfacet
  facet normal 0.000000 -0.382683 0.923880
    outer loop
      vertex 0.0000 0.8282 -3.0910
      vertex 10.0000 1.6000 -2.7713
      vertex 0.0000 1.6000 -2.7713
    endloop
  endfacet
  facet normal 0.000000 -0.382683 0.923880
    outer loop
      vertex 0.0000 0.8282 -3.0910
      vertex 10.0000 0.8282 -3.0910
      vertex 10.0000 1.6000 -2.7713
    endloop
  endfacet
  facet normal 0.000000 0.382683 -0.923880
    outer loop
      vertex 0.0000 0.4400 -1.6421
      vertex 0.0000 0.8500 -1.4722
      vertex 10.0000 0.8500 -1.4722
    endloop
  endfacet
  facet normal 0.000000 0.382683 -0.923880
    outer loop
      vertex 0.0000 0.4400 -1.6421
      vertex 10.0000 0.8500 -1.4722
      vertex 10.0000 0.4400 -1.6421
    endloop
  endfacet
  facet normal 1.000000 0.000000 0.000000
    outer loop
      vertex 0.0000 0.8282 -3.0910
      vertex 0.0000 1.6000 -2.7713
      vertex 0.0000 0.8500 -1.4722
    endloop
  endfacet
  facet normal 1.000000 0.000000 0.000000
    outer loop
      vertex 0.0000 0.8282 -3.0910
      vertex 0.0000 0.8500 -1.4722
      vertex 0.0000 0.4400 -1.6421
    endloop
  endfacet
  facet normal -1.000000 0.000000 0.000000
    outer loop
      vertex 10.0000 0.8282 -3.0910
      vertex 10.0000 0.8500 -1.4722
      vertex 10.0000 1.6000 -2.7713
    endloop
  endfacet
  facet normal -1.000000 0.000000 0.000000
    outer loop
      vertex 10.0000 0.8282 -3.0910
      vertex 10.0000 0.4400 -1.6421
      vertex 10.0000 0.8500 -1.4722
    endloop
  endfacet
  facet normal 0.000000 -0.608761 0.793353
    outer loop
      vertex 0.0000 1.6000 -2.7713
      vertex 10.0000 2.2627 -2.2627
      vertex 0.0000 2.2627 -2.2627
    endloop
  endfacet
  facet normal 0.000000 -0.608761 0.793353
    outer loop
      vertex 0.0000 1.6000 -2.7713
      vertex 10.0000 1.6000 -2.7713
      vertex 10.0000 2.2627 -2.2627
    endloop
  endfacet
  facet normal 0.000000 0.608761 -0.793353
    outer loop
      vertex 0.0000 0.8500 -1.4722
      vertex 0.0000 1.2021 -1.2021
      vertex 10.0000 1.2021 -1.2021
    endloop
  endfacet
  facet normal 0.000000 0.608761 -0.793353
    outer loop
      vertex 0.0000 0.8500 -1.4722
      vertex 10.0000 1.2021 -1.2021
      vertex 10.0000 0.8500 -1.4722
    endloop
  endfacet
  facet normal 1.000000 0.000000 0.000000
    outer loop
      vertex 0.0000 1.6000 -2.7713
      vertex 0.0000 2.2627 -2.2627
      vertex 0.0000 1.2021 -1.2021
    endloop
  endfacet
  facet normal 1.000000 0.000000 0.000000
    outer loop
      vertex 0.0000 1.6000 -2.7713
      vertex 0.0000 1.2021 -1.2021
      vertex 0.0000 0.8500 -1.4722
    endloop
  endfacet
  facet normal -1.000000 0.000000 0.000000
    outer loop
      vertex 10.0000 1.6000 -2.7713
      vertex 10.0000 1.2021 -1.2021
      vertex 10.0000 2.2627 -2.2627
    endloop
  endfacet
  facet normal -1.000000 0.000000 0.000000
    outer loop
      vertex 10.0000 1.6000 -2.7713
      vertex 10.0000 0.8500 -1.4722
      vertex 10.0000 1.2021 -1.2021
    endloop
  endfacet
  facet normal 0.000000 -0.793353 0.608761
    outer loop
      vertex 0.0000 2.2627 -2.2627
      vertex 10.0000 2.7713 -1.6000
      vertex 0.0000 2.7713 -1.6000
    endloop
  endfacet
  facet normal 0.000000 -0.793353 0.608761
    outer loop
      vertex 0.0000 2.2627 -2.2627
      vertex 10.0000 2.2627 -2.2627
      vertex 10.0000 2.7713 -1.6000
    endloop
  endfacet
  facet normal 0.000000 0.793353 -0.608761
    outer loop
      vertex 0.0000 1.2021 -1.2021
      vertex 0.0000 1.4722 -0.8500
      vertex 10.0000 1.4722 -0.8500
    endloop
  endfacet
  facet normal 0.000000 0.793353 -0.608761
    outer loop
      vertex 0.0000 1.2021 -1.2021
      vertex 10.0000 1.4722 -0.8500
      vertex 10.0000 1.2021 -1.2021
    endloop
  endfacet
  facet normal 1.000000 0.000000 0.000000
    outer loop
      vertex 0.0000 2.2627 -2.2627
      vertex 0.0000 2.7713 -1.6000
      vertex 0.0000 1.4722 -0.8500
    endloop
  endfacet
  facet normal 1.000000 0.000000 0.000000
    outer loop
      vertex 0.0000 2.2627 -2.2627
      vertex 0.0000 1.4722 -0.8500
      vertex 0.0000 1.2021 -1.2021
    endloop
  endfacet
  facet normal -1.000000 0.000000 0.000000
    outer loop
      vertex 10.0000 2.2627 -2.2627
      vertex 10.0000 1.4722 -0.8500
      vertex 10.0000 2.7713 -1.6000
    endloop
  endfacet
  facet normal -1.000000 0.000000 0.000000
    outer loop
      vertex 10.0000 2.2627 -2.2627
      vertex 10.0000 1.2021 -1.2021
      vertex 10.0000 1.4722 -0.8500
    endloop
  endfacet
  facet normal 0.000000 -0.923880 0.382683
    outer loop
      vertex 0.0000 2.7713 -1.6000
      vertex 10.0000 3.0910 -0.8282
      vertex 0.0000 3.0910 -0.8282
    endloop
  endfacet
  facet normal 0.000000 -0.923880 0.382683
    outer loop
      vertex 0.0000 2.7713 -1.6000
      vertex 10.0000 2.7713 -1.6000
      vertex 10.0000 3.0910 -0.8282
    endloop
  endfacet
  facet normal 0.000000 0.923880 -0.382683
    outer loop
      vertex 0.0000 1.4722 -0.8500
      vertex 0.0000 1.6421 -0.4400
      vertex 10.0000 1.6421 -0.4400
    endloop
  endfacet
  facet normal 0.000000 0.923880 -0.382683
    outer loop
      vertex 0.0000 1.4722 -0.8500
      vertex 10.0000 1.6421 -0.4400
      vertex 10.0000 1.4722 -0.8500
    endloop
  endfacet
  facet normal 1.000000 0.000000 0.000000
    outer loop
      vertex 0.0000 2.7713 -1.6000
      vertex 0.0000 3.0910 -0.8282
      vertex 0.0000 1.6421 -0.4400
    endloop
  endfacet
  facet normal 1.000000 0.000000 0.000000
    outer loop
      vertex 0.0000 2.7713 -1.6000
      vertex 0.0000 1.6421 -0.4400
      vertex 0.0000 1.4722 -0.8500
    endloop
  endfacet
  facet normal -1.000000 0.000000 0.000000
    outer loop
      vertex 10.0000 2.7713 -1.6000
      vertex 10.0000 1.6421 -0.4400
      vertex 10.0000 3.0910 -0.8282
    endloop
  endfacet
  facet normal -1.000000 0.000000 0.000000
    outer loop
      vertex 10.0000 2.7713 -1.6000
      vertex 10.0000 1.4722 -0.8500
      vertex 10.0000 1.6421 -0.4400
    endloop
  endfacet
  facet normal 0.000000 -0.991445 0.130526
    outer loop
      vertex 0.0000 3.0910 -0.8282
      vertex 10.0000 3.2000 0.0000
      vertex 0.0000 3.2000 0.0000
    endloop
  endfacet
  facet normal 0.000000 -0.991445 0.130526
    outer loop
      vertex 0.0000 3.0910 -0.8282
      vertex 10.0000 3.0910 -0.8282
      vertex 10.0000 3.2000 0.0000
    endloop
  endfacet
  facet normal 0.000000 0.991445 -0.130526
    outer loop
      vertex 0.0000 1.6421 -0.4400
      vertex 0.0000 1.7000 0.0000
      vertex 10.0000 1.7000 0.0000
    endloop
  endfacet
  facet normal 0.000000 0.991445 -0.130526
    outer loop
      vertex 0.0000 1.6421 -0.4400
      vertex 10.0000 1.7000 0.0000
      vertex 10.0000 1.6421 -0.4400
    endloop
  endfacet
  facet normal 1.000000 0.000000 0.000000
    outer loop
      vertex 0.0000 3.0910 -0.8282
      vertex 0.0000 3.2000 0.0000
      vertex 0.0000 1.7000 0.0000
    endloop
  endfacet
  facet normal 1.000000 0.000000 0.000000
    outer loop
      vertex 0.0000 3.0910 -0.8282
      vertex 0.0000 1.7000 0.0000
      vertex 0.0000 1.6421 -0.4400
    endloop
  endfacet
  facet normal -1.000000 0.000000 0.000000
    outer loop
      vertex 10.0000 3.0910 -0.8282
      vertex 10.0000 1.7000 0.0000
      vertex 10.0000 3.2000 0.0000
    endloop
  endfacet
  facet normal -1.000000 0.000000 0.000000
    outer loop
      vertex 10.0000 3.0910 -0.8282
      vertex 10.0000 1.6421 -0.4400
      vertex 10.0000 1.7000 0.0000
    endloop
  endfacet
endsolid M3_spacer_10mm_reference
