solid N20_motor_bracket_reference
  facet normal 0.000000 0.000000 1.000000
    outer loop
      vertex -20.0000 -9.0000 0.0000
      vertex 20.0000 -9.0000 0.0000
      vertex 20.0000 9.0000 0.0000
    endloop
  endfacet
  facet normal 0.000000 0.000000 1.000000
    outer loop
      vertex -20.0000 -9.0000 0.0000
      vertex 20.0000 9.0000 0.0000
      vertex -20.0000 9.0000 0.0000
    endloop
  endfacet
  facet normal 0.000000 0.000000 -1.000000
    outer loop
      vertex -20.0000 -9.0000 5.0000
      vertex 20.0000 9.0000 5.0000
      vertex 20.0000 -9.0000 5.0000
    endloop
  endfacet
  facet normal 0.000000 0.000000 -1.000000
    outer loop
      vertex -20.0000 -9.0000 5.0000
      vertex -20.0000 9.0000 5.0000
      vertex 20.0000 9.0000 5.0000
    endloop
  endfacet
  facet normal 0.000000 1.000000 0.000000
    outer loop
      vertex -20.0000 -9.0000 0.0000
      vertex -20.0000 -9.0000 5.0000
      vertex 20.0000 -9.0000 5.0000
    endloop
  endfacet
  facet normal 0.000000 1.000000 0.000000
    outer loop
      vertex -20.0000 -9.0000 0.0000
      vertex 20.0000 -9.0000 5.0000
      vertex 20.0000 -9.0000 0.0000
    endloop
  endfacet
  facet normal -1.000000 0.000000 0.000000
    outer loop
      vertex 20.0000 -9.0000 0.0000
      vertex 20.0000 -9.0000 5.0000
      vertex 20.0000 9.0000 5.0000
    endloop
  endfacet
  facet normal -1.000000 0.000000 0.000000
    outer loop
      vertex 20.0000 -9.0000 0.0000
      vertex 20.0000 9.0000 5.0000
      vertex 20.0000 9.0000 0.0000
    endloop
  endfacet
  facet normal 0.000000 -1.000000 0.000000
    outer loop
      vertex 20.0000 9.0000 0.0000
      vertex 20.0000 9.0000 5.0000
      vertex -20.0000 9.0000 5.0000
    endloop
  endfacet
  facet normal 0.000000 -1.000000 0.000000
    outer loop
      vertex 20.0000 9.0000 0.0000
      vertex -20.0000 9.0000 5.0000
      vertex -20.0000 9.0000 0.0000
    endloop
  endfacet
  facet normal 1.000000 0.000000 0.000000
    outer loop
      vertex -20.0000 9.0000 0.0000
      vertex -20.0000 9.0000 5.0000
      vertex -20.0000 -9.0000 5.0000
    endloop
  endfacet
  facet normal 1.000000 0.000000 0.000000
    outer loop
      vertex -20.0000 9.0000 0.0000
      vertex -20.0000 -9.0000 5.0000
      vertex -20.0000 -9.0000 0.0000
    endloop
  endfacet
  facet normal 0.000000 0.000000 1.000000
    outer loop
      vertex -20.0000 -9.0000 5.0000
      vertex -15.0000 -9.0000 5.0000
      vertex -15.0000 9.0000 5.0000
    endloop
  endfacet
  facet normal 0.000000 0.000000 1.000000
    outer loop
      vertex -20.0000 -9.0000 5.0000
      vertex -15.0000 9.0000 5.0000
      vertex -20.0000 9.0000 5.0000
    endloop
  endfacet
  facet normal 0.000000 0.000000 -1.000000
    outer loop
      vertex -20.0000 -9.0000 27.5000
      vertex -15.0000 9.0000 27.5000
      vertex -15.0000 -9.0000 27.5000
    endloop
  endfacet
  facet normal 0.000000 0.000000 -1.000000
    outer loop
      vertex -20.0000 -9.0000 27.5000
      vertex -20.0000 9.0000 27.5000
      vertex -15.0000 9.0000 27.5000
    endloop
  endfacet
  facet normal 0.000000 1.000000 0.000000
    outer loop
      vertex -20.0000 -9.0000 5.0000
      vertex -20.0000 -9.0000 27.5000
      vertex -15.0000 -9.0000 27.5000
    endloop
  endfacet
  facet normal 0.000000 1.000000 0.000000
    outer loop
      vertex -20.0000 -9.0000 5.0000
      vertex -15.0000 -9.0000 27.5000
      vertex -15.0000 -9.0000 5.0000
    endloop
  endfacet
  facet normal -1.000000 0.000000 0.000000
    outer loop
      vertex -15.0000 -9.0000 5.0000
      vertex -15.0000 -9.0000 27.5000
      vertex -15.0000 9.0000 27.5000
    endloop
  endfacet
  facet normal -1.000000 0.000000 0.000000
    outer loop
      vertex -15.0000 -9.0000 5.0000
      vertex -15.0000 9.0000 27.5000
      vertex -15.0000 9.0000 5.0000
    endloop
  endfacet
  facet normal 0.000000 -1.000000 0.000000
    outer loop
      vertex -15.0000 9.0000 5.0000
      vertex -15.0000 9.0000 27.5000
      vertex -20.0000 9.0000 27.5000
    endloop
  endfacet
  facet normal 0.000000 -1.000000 0.000000
    outer loop
      vertex -15.0000 9.0000 5.0000
      vertex -20.0000 9.0000 27.5000
      vertex -20.0000 9.0000 5.0000
    endloop
  endfacet
  facet normal 1.000000 0.000000 0.000000
    outer loop
      vertex -20.0000 9.0000 5.0000
      vertex -20.0000 9.0000 27.5000
      vertex -20.0000 -9.0000 27.5000
    endloop
  endfacet
  facet normal 1.000000 0.000000 0.000000
    outer loop
      vertex -20.0000 9.0000 5.0000
      vertex -20.0000 -9.0000 27.5000
      vertex -20.0000 -9.0000 5.0000
    endloop
  endfacet
  facet normal 0.000000 0.000000 1.000000
    outer loop
      vertex 15.0000 -9.0000 5.0000
      vertex 20.0000 -9.0000 5.0000
      vertex 20.0000 9.0000 5.0000
    endloop
  endfacet
  facet normal 0.000000 0.000000 1.000000
    outer loop
      vertex 15.0000 -9.0000 5.0000
      vertex 20.0000 9.0000 5.0000
      vertex 15.0000 9.0000 5.0000
    endloop
  endfacet
  facet normal 0.000000 0.000000 -1.000000
    outer loop
      vertex 15.0000 -9.0000 27.5000
      vertex 20.0000 9.0000 27.5000
      vertex 20.0000 -9.0000 27.5000
    endloop
  endfacet
  facet normal 0.000000 0.000000 -1.000000
    outer loop
      vertex 15.0000 -9.0000 27.5000
      vertex 15.0000 9.0000 27.5000
      vertex 20.0000 9.0000 27.5000
    endloop
  endfacet
  facet normal 0.000000 1.000000 0.000000
    outer loop
      vertex 15.0000 -9.0000 5.0000
      vertex 15.0000 -9.0000 27.5000
      vertex 20.0000 -9.0000 27.5000
    endloop
  endfacet
  facet normal 0.000000 1.000000 0.000000
    outer loop
      vertex 15.0000 -9.0000 5.0000
      vertex 20.0000 -9.0000 27.5000
      vertex 20.0000 -9.0000 5.0000
    endloop
  endfacet
  facet normal -1.000000 0.000000 0.000000
    outer loop
      vertex 20.0000 -9.0000 5.0000
      vertex 20.0000 -9.0000 27.5000
      vertex 20.0000 9.0000 27.5000
    endloop
  endfacet
  facet normal -1.000000 0.000000 0.000000
    outer loop
      vertex 20.0000 -9.0000 5.0000
      vertex 20.0000 9.0000 27.5000
      vertex 20.0000 9.0000 5.0000
    endloop
  endfacet
  facet normal 0.000000 -1.000000 0.000000
    outer loop
      vertex 20.0000 9.0000 5.0000
      vertex 20.0000 9.0000 27.5000
      vertex 15.0000 9.0000 27.5000
    endloop
  endfacet
  facet normal 0.000000 -1.000000 0.000000
    outer loop
      vertex 20.0000 9.0000 5.0000
      vertex 15.0000 9.0000 27.5000
      vertex 15.0000 9.0000 5.0000
    endloop
  endfacet
  facet normal 1.000000 0.000000 0.000000
    outer loop
      vertex 15.0000 9.0000 5.0000
      vertex 15.0000 9.0000 27.5000
      vertex 15.0000 -9.0000 27.5000
    endloop
  endfacet
  facet normal 1.000000 0.000000 0.000000
    outer loop
      vertex 15.0000 9.0000 5.0000
      vertex 15.0000 -9.0000 27.5000
      vertex 15.0000 -9.0000 5.0000
    endloop
  endfacet
endsolid N20_motor_bracket_reference
