solid N20_encoder_motor_reference
  facet normal 0.000000 0.000000 1.000000
    outer loop
      vertex -16.2500 -5.0000 -6.0000
      vertex 6.7500 -5.0000 -6.0000
      vertex 6.7500 5.0000 -6.0000
    endloop
  endfacet
  facet normal 0.000000 0.000000 1.000000
    outer loop
      vertex -16.2500 -5.0000 -6.0000
      vertex 6.7500 5.0000 -6.0000
      vertex -16.2500 5.0000 -6.0000
    endloop
  endfacet
  facet normal 0.000000 0.000000 -1.000000
    outer loop
      vertex -16.2500 -5.0000 6.0000
      vertex 6.7500 5.0000 6.0000
      vertex 6.7500 -5.0000 6.0000
    endloop
  endfacet
  facet normal 0.000000 0.000000 -1.000000
    outer loop
      vertex -16.2500 -5.0000 6.0000
      vertex -16.2500 5.0000 6.0000
      vertex 6.7500 5.0000 6.0000
    endloop
  endfacet
  facet normal 0.000000 1.000000 0.000000
    outer loop
      vertex -16.2500 -5.0000 -6.0000
      vertex -16.2500 -5.0000 6.0000
      vertex 6.7500 -5.0000 6.0000
    endloop
  endfacet
  facet normal 0.000000 1.000000 0.000000
    outer loop
      vertex -16.2500 -5.0000 -6.0000
      vertex 6.7500 -5.0000 6.0000
      vertex 6.7500 -5.0000 -6.0000
    endloop
  endfacet
  facet normal -1.000000 0.000000 0.000000
    outer loop
      vertex 6.7500 -5.0000 -6.0000
      vertex 6.7500 -5.0000 6.0000
      vertex 6.7500 5.0000 6.0000
    endloop
  endfacet
  facet normal -1.000000 0.000000 0.000000
    outer loop
      vertex 6.7500 -5.0000 -6.0000
      vertex 6.7500 5.0000 6.0000
      vertex 6.7500 5.0000 -6.0000
    endloop
  endfacet
  facet normal 0.000000 -1.000000 0.000000
    outer loop
      vertex 6.7500 5.0000 -6.0000
      vertex 6.7500 5.0000 6.0000
      vertex -16.2500 5.0000 6.0000
    endloop
  endfacet
  facet normal 0.000000 -1.000000 0.000000
    outer loop
      vertex 6.7500 5.0000 -6.0000
      vertex -16.2500 5.0000 6.0000
      vertex -16.2500 5.0000 -6.0000
    endloop
  endfacet
  facet normal 1.000000 0.000000 0.000000
    outer loop
      vertex -16.2500 5.0000 -6.0000
      vertex -16.2500 5.0000 6.0000
      vertex -16.2500 -5.0000 6.0000
    endloop
  endfacet
  facet normal 1.000000 0.000000 0.000000
    outer loop
      vertex -16.2500 5.0000 -6.0000
      vertex -16.2500 -5.0000 6.0000
      vertex -16.2500 -5.0000 -6.0000
    endloop
  endfacet
  facet normal 0.000000 0.000000 1.000000
    outer loop
      vertex 6.7500 -6.0000 -7.0000
      vertex 16.2500 -6.0000 -7.0000
      vertex 16.2500 6.0000 -7.0000
    endloop
  endfacet
  facet normal 0.000000 0.000000 1.000000
    outer loop
      vertex 6.7500 -6.0000 -7.0000
      vertex 16.2500 6.0000 -7.0000
      vertex 6.7500 6.0000 -7.0000
    endloop
  endfacet
  facet normal 0.000000 0.000000 -1.000000
    outer loop
      vertex 6.7500 -6.0000 7.0000
      vertex 16.2500 6.0000 7.0000
      vertex 16.2500 -6.0000 7.0000
    endloop
  endfacet
  facet normal 0.000000 0.000000 -1.000000
    outer loop
      vertex 6.7500 -6.0000 7.0000
      vertex 6.7500 6.0000 7.0000
      vertex 16.2500 6.0000 7.0000
    endloop
  endfacet
  facet normal 0.000000 1.000000 0.000000
    outer loop
      vertex 6.7500 -6.0000 -7.0000
      vertex 6.7500 -6.0000 7.0000
      vertex 16.2500 -6.0000 7.0000
    endloop
  endfacet
  facet normal 0.000000 1.000000 0.000000
    outer loop
      vertex 6.7500 -6.0000 -7.0000
      vertex 16.2500 -6.0000 7.0000
      vertex 16.2500 -6.0000 -7.0000
    endloop
  endfacet
  facet normal -1.000000 0.000000 0.000000
    outer loop
      vertex 16.2500 -6.0000 -7.0000
      vertex 16.2500 -6.0000 7.0000
      vertex 16.2500 6.0000 7.0000
    endloop
  endfacet
  facet normal -1.000000 0.000000 0.000000
    outer loop
      vertex 16.2500 -6.0000 -7.0000
      vertex 16.2500 6.0000 7.0000
      vertex 16.2500 6.0000 -7.0000
    endloop
  endfacet
  facet normal 0.000000 -1.000000 0.000000
    outer loop
      vertex 16.2500 6.0000 -7.0000
      vertex 16.2500 6.0000 7.0000
      vertex 6.7500 6.0000 7.0000
    endloop
  endfacet
  facet normal 0.000000 -1.000000 0.000000
    outer loop
      vertex 16.2500 6.0000 -7.0000
      vertex 6.7500 6.0000 7.0000
      vertex 6.7500 6.0000 -7.0000
    endloop
  endfacet
  facet normal 1.000000 0.000000 0.000000
    outer loop
      vertex 6.7500 6.0000 -7.0000
      vertex 6.7500 6.0000 7.0000
      vertex 6.7500 -6.0000 7.0000
    endloop
  endfacet
  facet normal 1.000000 0.000000 0.000000
    outer loop
      vertex 6.7500 6.0000 -7.0000
      vertex 6.7500 -6.0000 7.0000
      vertex 6.7500 -6.0000 -7.0000
    endloop
  endfacet
  facet normal 0.000000 -0.991445 -0.130526
    outer loop
      vertex 16.2500 1.5000 0.0000
      vertex 25.2500 1.4489 0.3882
      vertex 16.2500 1.4489 0.3882
    endloop
  endfacet
  facet normal 0.000000 -0.991445 -0.130526
    outer loop
      vertex 16.2500 1.5000 0.0000
      vertex 25.2500 1.5000 0.0000
      vertex 25.2500 1.4489 0.3882
    endloop
  endfacet
  facet normal -1.000000 0.000000 0.000000
    outer loop
      vertex 16.2500 0.0000 0.0000
      vertex 16.2500 1.4489 0.3882
      vertex 16.2500 1.5000 0.0000
    endloop
  endfacet
  facet normal 1.000000 0.000000 0.000000
    outer loop
      vertex 25.2500 0.0000 0.0000
      vertex 25.2500 1.5000 0.0000
      vertex 25.2500 1.4489 0.3882
    endloop
  endfacet
  facet normal 0.000000 -0.923880 -0.382683
    outer loop
      vertex 16.2500 1.4489 0.3882
      vertex 25.2500 1.2990 0.7500
      vertex 16.2500 1.2990 0.7500
    endloop
  endfacet
  facet normal 0.000000 -0.923880 -0.382683
    outer loop
      vertex 16.2500 1.4489 0.3882
      vertex 25.2500 1.4489 0.3882
      vertex 25.2500 1.2990 0.7500
    endloop
  endfacet
  facet normal -1.000000 0.000000 0.000000
    outer loop
      vertex 16.2500 0.0000 0.0000
      vertex 16.2500 1.2990 0.7500
      vertex 16.2500 1.4489 0.3882
    endloop
  endfacet
  facet normal 1.000000 0.000000 0.000000
    outer loop
      vertex 25.2500 0.0000 0.0000
      vertex 25.2500 1.4489 0.3882
      vertex 25.2500 1.2990 0.7500
    endloop
  endfacet
  facet normal 0.000000 -0.793353 -0.608761
    outer loop
      vertex 16.2500 1.2990 0.7500
      vertex 25.2500 1.0607 1.0607
      vertex 16.2500 1.0607 1.0607
    endloop
  endfacet
  facet normal 0.000000 -0.793353 -0.608761
    outer loop
      vertex 16.2500 1.2990 0.7500
      vertex 25.2500 1.2990 0.7500
      vertex 25.2500 1.0607 1.0607
    endloop
  endfacet
  facet normal -1.000000 0.000000 0.000000
    outer loop
      vertex 16.2500 0.0000 0.0000
      vertex 16.2500 1.0607 1.0607
      vertex 16.2500 1.2990 0.7500
    endloop
  endfacet
  facet normal 1.000000 0.000000 0.000000
    outer loop
      vertex 25.2500 0.0000 0.0000
      vertex 25.2500 1.2990 0.7500
      vertex 25.2500 1.0607 1.0607
    endloop
  endfacet
  facet normal 0.000000 -0.608761 -0.793353
    outer loop
      vertex 16.2500 1.0607 1.0607
      vertex 25.2500 0.7500 1.2990
      vertex 16.2500 0.7500 1.2990
    endloop
  endfacet
  facet normal 0.000000 -0.608761 -0.793353
    outer loop
      vertex 16.2500 1.0607 1.0607
      vertex 25.2500 1.0607 1.0607
      vertex 25.2500 0.7500 1.2990
    endloop
  endfacet
  facet normal -1.000000 0.000000 0.000000
    outer loop
      vertex 16.2500 0.0000 0.0000
      vertex 16.2500 0.7500 1.2990
      vertex 16.2500 1.0607 1.0607
    endloop
  endfacet
  facet normal 1.000000 0.000000 0.000000
    outer loop
      vertex 25.2500 0.0000 0.0000
      vertex 25.2500 1.0607 1.0607
      vertex 25.2500 0.7500 1.2990
    endloop
  endfacet
  facet normal 0.000000 -0.382683 -0.923880
    outer loop
      vertex 16.2500 0.7500 1.2990
      vertex 25.2500 0.3882 1.4489
      vertex 16.2500 0.3882 1.4489
    endloop
  endfacet
  facet normal 0.000000 -0.382683 -0.923880
    outer loop
      vertex 16.2500 0.7500 1.2990
      vertex 25.2500 0.7500 1.2990
      vertex 25.2500 0.3882 1.4489
    endloop
  endfacet
  facet normal -1.000000 0.000000 0.000000
    outer loop
      vertex 16.2500 0.0000 0.0000
      vertex 16.2500 0.3882 1.4489
      vertex 16.2500 0.7500 1.2990
    endloop
  endfacet
  facet normal 1.000000 0.000000 0.000000
    outer loop
      vertex 25.2500 0.0000 0.0000
      vertex 25.2500 0.7500 1.2990
      vertex 25.2500 0.3882 1.4489
    endloop
  endfacet
  facet normal 0.000000 -0.130526 -0.991445
    outer loop
      vertex 16.2500 0.3882 1.4489
      vertex 25.2500 0.0000 1.5000
      vertex 16.2500 0.0000 1.5000
    endloop
  endfacet
  facet normal 0.000000 -0.130526 -0.991445
    outer loop
      vertex 16.2500 0.3882 1.4489
      vertex 25.2500 0.3882 1.4489
      vertex 25.2500 0.0000 1.5000
    endloop
  endfacet
  facet normal -1.000000 0.000000 0.000000
    outer loop
      vertex 16.2500 0.0000 0.0000
      vertex 16.2500 0.0000 1.5000
      vertex 16.2500 0.3882 1.4489
    endloop
  endfacet
  facet normal 1.000000 0.000000 0.000000
    outer loop
      vertex 25.2500 0.0000 0.0000
      vertex 25.2500 0.3882 1.4489
      vertex 25.2500 0.0000 1.5000
    endloop
  endfacet
  facet normal 0.000000 0.130526 -0.991445
    outer loop
      vertex 16.2500 0.0000 1.5000
      vertex 25.2500 -0.3882 1.4489
      vertex 16.2500 -0.3882 1.4489
    endloop
  endfacet
  facet normal 0.000000 0.130526 -0.991445
    outer loop
      vertex 16.2500 0.0000 1.5000
      vertex 25.2500 0.0000 1.5000
      vertex 25.2500 -0.3882 1.4489
    endloop
  endfacet
  facet normal -1.000000 0.000000 0.000000
    outer loop
      vertex 16.2500 0.0000 0.0000
      vertex 16.2500 -0.3882 1.4489
      vertex 16.2500 0.0000 1.5000
    endloop
  endfacet
  facet normal 1.000000 0.000000 0.000000
    outer loop
      vertex 25.2500 0.0000 0.0000
      vertex 25.2500 0.0000 1.5000
      vertex 25.2500 -0.3882 1.4489
    endloop
  endfacet
  facet normal 0.000000 0.382683 -0.923880
    outer loop
      vertex 16.2500 -0.3882 1.4489
      vertex 25.2500 -0.7500 1.2990
      vertex 16.2500 -0.7500 1.2990
    endloop
  endfacet
  facet normal 0.000000 0.382683 -0.923880
    outer loop
      vertex 16.2500 -0.3882 1.4489
      vertex 25.2500 -0.3882 1.4489
      vertex 25.2500 -0.7500 1.2990
    endloop
  endfacet
  facet normal -1.000000 0.000000 0.000000
    outer loop
      vertex 16.2500 0.0000 0.0000
      vertex 16.2500 -0.7500 1.2990
      vertex 16.2500 -0.3882 1.4489
    endloop
  endfacet
  facet normal 1.000000 0.000000 0.000000
    outer loop
      vertex 25.2500 0.0000 0.0000
      vertex 25.2500 -0.3882 1.4489
      vertex 25.2500 -0.7500 1.2990
    endloop
  endfacet
  facet normal 0.000000 0.608761 -0.793353
    outer loop
      vertex 16.2500 -0.7500 1.2990
      vertex 25.2500 -1.0607 1.0607
      vertex 16.2500 -1.0607 1.0607
    endloop
  endfacet
  facet normal 0.000000 0.608761 -0.793353
    outer loop
      vertex 16.2500 -0.7500 1.2990
      vertex 25.2500 -0.7500 1.2990
      vertex 25.2500 -1.0607 1.0607
    endloop
  endfacet
  facet normal -1.000000 0.000000 0.000000
    outer loop
      vertex 16.2500 0.0000 0.0000
      vertex 16.2500 -1.0607 1.0607
      vertex 16.2500 -0.7500 1.2990
    endloop
  endfacet
  facet normal 1.000000 0.000000 0.000000
    outer loop
      vertex 25.2500 0.0000 0.0000
      vertex 25.2500 -0.7500 1.2990
      vertex 25.2500 -1.0607 1.0607
    endloop
  endfacet
  facet normal 0.000000 0.793353 -0.608761
    outer loop
      vertex 16.2500 -1.0607 1.0607
      vertex 25.2500 -1.2990 0.7500
      vertex 16.2500 -1.2990 0.7500
    endloop
  endfacet
  facet normal 0.000000 0.793353 -0.608761
    outer loop
      vertex 16.2500 -1.0607 1.0607
      vertex 25.2500 -1.0607 1.0607
      vertex 25.2500 -1.2990 0.7500
    endloop
  endfacet
  facet normal -1.000000 0.000000 0.000000
    outer loop
      vertex 16.2500 0.0000 0.0000
      vertex 16.2500 -1.2990 0.7500
      vertex 16.2500 -1.0607 1.0607
    endloop
  endfacet
  facet normal 1.000000 0.000000 0.000000
    outer loop
      vertex 25.2500 0.0000 0.0000
      vertex 25.2500 -1.0607 1.0607
      vertex 25.2500 -1.2990 0.7500
    endloop
  endfacet
  facet normal 0.000000 0.923880 -0.382683
    outer loop
      vertex 16.2500 -1.2990 0.7500
      vertex 25.2500 -1.4489 0.3882
      vertex 16.2500 -1.4489 0.3882
    endloop
  endfacet
  facet normal 0.000000 0.923880 -0.382683
    outer loop
      vertex 16.2500 -1.2990 0.7500
      vertex 25.2500 -1.2990 0.7500
      vertex 25.2500 -1.4489 0.3882
    endloop
  endfacet
  facet normal -1.000000 0.000000 0.000000
    outer loop
      vertex 16.2500 0.0000 0.0000
      vertex 16.2500 -1.4489 0.3882
      vertex 16.2500 -1.2990 0.7500
    endloop
  endfacet
  facet normal 1.000000 0.000000 0.000000
    outer loop
      vertex 25.2500 0.0000 0.0000
      vertex 25.2500 -1.2990 0.7500
      vertex 25.2500 -1.4489 0.3882
    endloop
  endfacet
  facet normal 0.000000 0.991445 -0.130526
    outer loop
      vertex 16.2500 -1.4489 0.3882
      vertex 25.2500 -1.5000 0.0000
      vertex 16.2500 -1.5000 0.0000
    endloop
  endfacet
  facet normal 0.000000 0.991445 -0.130526
    outer loop
      vertex 16.2500 -1.4489 0.3882
      vertex 25.2500 -1.4489 0.3882
      vertex 25.2500 -1.5000 0.0000
    endloop
  endfacet
  facet normal -1.000000 0.000000 0.000000
    outer loop
      vertex 16.2500 0.0000 0.0000
      vertex 16.2500 -1.5000 0.0000
      vertex 16.2500 -1.4489 0.3882
    endloop
  endfacet
  facet normal 1.000000 0.000000 0.000000
    outer loop
      vertex 25.2500 0.0000 0.0000
      vertex 25.2500 -1.4489 0.3882
      vertex 25.2500 -1.5000 0.0000
    endloop
  endfacet
  facet normal 0.000000 0.991445 0.130526
    outer loop
      vertex 16.2500 -1.5000 0.0000
      vertex 25.2500 -1.4489 -0.3882
      vertex 16.2500 -1.4489 -0.3882
    endloop
  endfacet
  facet normal 0.000000 0.991445 0.130526
    outer loop
      vertex 16.2500 -1.5000 0.0000
      vertex 25.2500 -1.5000 0.0000
      vertex 25.2500 -1.4489 -0.3882
    endloop
  endfacet
  facet normal -1.000000 0.000000 0.000000
    outer loop
      vertex 16.2500 0.0000 0.0000
      vertex 16.2500 -1.4489 -0.3882
      vertex 16.2500 -1.5000 0.0000
    endloop
  endfacet
  facet normal 1.000000 0.000000 0.000000
    outer loop
      vertex 25.2500 0.0000 0.0000
      vertex 25.2500 -1.5000 0.0000
      vertex 25.2500 -1.4489 -0.3882
    endloop
  endfacet
  facet normal 0.000000 0.923880 0.382683
    outer loop
      vertex 16.2500 -1.4489 -0.3882
      vertex 25.2500 -1.2990 -0.7500
      vertex 16.2500 -1.2990 -0.7500
    endloop
  endfacet
  facet normal 0.000000 0.923880 0.382683
    outer loop
      vertex 16.2500 -1.4489 -0.3882
      vertex 25.2500 -1.4489 -0.3882
      vertex 25.2500 -1.2990 -0.7500
    endloop
  endfacet
  facet normal -1.000000 0.000000 0.000000
    outer loop
      vertex 16.2500 0.0000 0.0000
      vertex 16.2500 -1.2990 -0.7500
      vertex 16.2500 -1.4489 -0.3882
    endloop
  endfacet
  facet normal 1.000000 0.000000 0.000000
    outer loop
      vertex 25.2500 0.0000 0.0000
      vertex 25.2500 -1.4489 -0.3882
      vertex 25.2500 -1.2990 -0.7500
    endloop
  endfacet
  facet normal 0.000000 0.793353 0.608761
    outer loop
      vertex 16.2500 -1.2990 -0.7500
      vertex 25.2500 -1.0607 -1.0607
      vertex 16.2500 -1.0607 -1.0607
    endloop
  endfacet
  facet normal 0.000000 0.793353 0.608761
    outer loop
      vertex 16.2500 -1.2990 -0.7500
      vertex 25.2500 -1.2990 -0.7500
      vertex 25.2500 -1.0607 -1.0607
    endloop
  endfacet
  facet normal -1.000000 0.000000 0.000000
    outer loop
      vertex 16.2500 0.0000 0.0000
      vertex 16.2500 -1.0607 -1.0607
      vertex 16.2500 -1.2990 -0.7500
    endloop
  endfacet
  facet normal 1.000000 0.000000 0.000000
    outer loop
      vertex 25.2500 0.0000 0.0000
      vertex 25.2500 -1.2990 -0.7500
      vertex 25.2500 -1.0607 -1.0607
    endloop
  endfacet
  facet normal 0.000000 0.608761 0.793353
    outer loop
      vertex 16.2500 -1.0607 -1.0607
      vertex 25.2500 -0.7500 -1.2990
      vertex 16.2500 -0.7500 -1.2990
    endloop
  endfacet
  facet normal 0.000000 0.608761 0.793353
    outer loop
      vertex 16.2500 -1.0607 -1.0607
      vertex 25.2500 -1.0607 -1.0607
      vertex 25.2500 -0.7500 -1.2990
    endloop
  endfacet
  facet normal -1.000000 0.000000 0.000000
    outer loop
      vertex 16.2500 0.0000 0.0000
      vertex 16.2500 -0.7500 -1.2990
      vertex 16.2500 -1.0607 -1.0607
    endloop
  endfacet
  facet normal 1.000000 0.000000 0.000000
    outer loop
      vertex 25.2500 0.0000 0.0000
      vertex 25.2500 -1.0607 -1.0607
      vertex 25.2500 -0.7500 -1.2990
    endloop
  endfacet
  facet normal 0.000000 0.382683 0.923880
    outer loop
      vertex 16.2500 -0.7500 -1.2990
      vertex 25.2500 -0.3882 -1.4489
      vertex 16.2500 -0.3882 -1.4489
    endloop
  endfacet
  facet normal 0.000000 0.382683 0.923880
    outer loop
      vertex 16.2500 -0.7500 -1.2990
      vertex 25.2500 -0.7500 -1.2990
      vertex 25.2500 -0.3882 -1.4489
    endloop
  endfacet
  facet normal -1.000000 0.000000 0.000000
    outer loop
      vertex 16.2500 0.0000 0.0000
      vertex 16.2500 -0.3882 -1.4489
      vertex 16.2500 -0.7500 -1.2990
    endloop
  endfacet
  facet normal 1.000000 0.000000 0.000000
    outer loop
      vertex 25.2500 0.0000 0.0000
      vertex 25.2500 -0.7500 -1.2990
      vertex 25.2500 -0.3882 -1.4489
    endloop
  endfacet
  facet normal 0.000000 0.130526 0.991445
    outer loop
      vertex 16.2500 -0.3882 -1.4489
      vertex 25.2500 -0.0000 -1.5000
      vertex 16.2500 -0.0000 -1.5000
    endloop
  endfacet
  facet normal 0.000000 0.130526 0.991445
    outer loop
      vertex 16.2500 -0.3882 -1.4489
      vertex 25.2500 -0.3882 -1.4489
      vertex 25.2500 -0.0000 -1.5000
    endloop
  endfacet
  facet normal -1.000000 0.000000 0.000000
    outer loop
      vertex 16.2500 0.0000 0.0000
      vertex 16.2500 -0.0000 -1.5000
      vertex 16.2500 -0.3882 -1.4489
    endloop
  endfacet
  facet normal 1.000000 0.000000 0.000000
    outer loop
      vertex 25.2500 0.0000 0.0000
      vertex 25.2500 -0.3882 -1.4489
      vertex 25.2500 -0.0000 -1.5000
    endloop
  endfacet
  facet normal 0.000000 -0.130526 0.991445
    outer loop
      vertex 16.2500 -0.0000 -1.5000
      vertex 25.2500 0.3882 -1.4489
      vertex 16.2500 0.3882 -1.4489
    endloop
  endfacet
  facet normal 0.000000 -0.130526 0.991445
    outer loop
      vertex 16.2500 -0.0000 -1.5000
      vertex 25.2500 -0.0000 -1.5000
      vertex 25.2500 0.3882 -1.4489
    endloop
  endfacet
  facet normal -1.000000 0.000000 0.000000
    outer loop
      vertex 16.2500 0.0000 0.0000
      vertex 16.2500 0.3882 -1.4489
      vertex 16.2500 -0.0000 -1.5000
    endloop
  endfacet
  facet normal 1.000000 0.000000 0.000000
    outer loop
      vertex 25.2500 0.0000 0.0000
      vertex 25.2500 -0.0000 -1.5000
      vertex 25.2500 0.3882 -1.4489
    endloop
  endfacet
  facet normal 0.000000 -0.382683 0.923880
    outer loop
      vertex 16.2500 0.3882 -1.4489
      vertex 25.2500 0.7500 -1.2990
      vertex 16.2500 0.7500 -1.2990
    endloop
  endfacet
  facet normal 0.000000 -0.382683 0.923880
    outer loop
      vertex 16.2500 0.3882 -1.4489
      vertex 25.2500 0.3882 -1.4489
      vertex 25.2500 0.7500 -1.2990
    endloop
  endfacet
  facet normal -1.000000 0.000000 0.000000
    outer loop
      vertex 16.2500 0.0000 0.0000
      vertex 16.2500 0.7500 -1.2990
      vertex 16.2500 0.3882 -1.4489
    endloop
  endfacet
  facet normal 1.000000 0.000000 0.000000
    outer loop
      vertex 25.2500 0.0000 0.0000
      vertex 25.2500 0.3882 -1.4489
      vertex 25.2500 0.7500 -1.2990
    endloop
  endfacet
  facet normal 0.000000 -0.608761 0.793353
    outer loop
      vertex 16.2500 0.7500 -1.2990
      vertex 25.2500 1.0607 -1.0607
      vertex 16.2500 1.0607 -1.0607
    endloop
  endfacet
  facet normal 0.000000 -0.608761 0.793353
    outer loop
      vertex 16.2500 0.7500 -1.2990
      vertex 25.2500 0.7500 -1.2990
      vertex 25.2500 1.0607 -1.0607
    endloop
  endfacet
  facet normal -1.000000 0.000000 0.000000
    outer loop
      vertex 16.2500 0.0000 0.0000
      vertex 16.2500 1.0607 -1.0607
      vertex 16.2500 0.7500 -1.2990
    endloop
  endfacet
  facet normal 1.000000 0.000000 0.000000
    outer loop
      vertex 25.2500 0.0000 0.0000
      vertex 25.2500 0.7500 -1.2990
      vertex 25.2500 1.0607 -1.0607
    endloop
  endfacet
  facet normal 0.000000 -0.793353 0.608761
    outer loop
      vertex 16.2500 1.0607 -1.0607
      vertex 25.2500 1.2990 -0.7500
      vertex 16.2500 1.2990 -0.7500
    endloop
  endfacet
  facet normal 0.000000 -0.793353 0.608761
    outer loop
      vertex 16.2500 1.0607 -1.0607
      vertex 25.2500 1.0607 -1.0607
      vertex 25.2500 1.2990 -0.7500
    endloop
  endfacet
  facet normal -1.000000 0.000000 0.000000
    outer loop
      vertex 16.2500 0.0000 0.0000
      vertex 16.2500 1.2990 -0.7500
      vertex 16.2500 1.0607 -1.0607
    endloop
  endfacet
  facet normal 1.000000 0.000000 0.000000
    outer loop
      vertex 25.2500 0.0000 0.0000
      vertex 25.2500 1.0607 -1.0607
      vertex 25.2500 1.2990 -0.7500
    endloop
  endfacet
  facet normal 0.000000 -0.923880 0.382683
    outer loop
      vertex 16.2500 1.2990 -0.7500
      vertex 25.2500 1.4489 -0.3882
      vertex 16.2500 1.4489 -0.3882
    endloop
  endfacet
  facet normal 0.000000 -0.923880 0.382683
    outer loop
      vertex 16.2500 1.2990 -0.7500
      vertex 25.2500 1.2990 -0.7500
      vertex 25.2500 1.4489 -0.3882
    endloop
  endfacet
  facet normal -1.000000 0.000000 0.000000
    outer loop
      vertex 16.2500 0.0000 0.0000
      vertex 16.2500 1.4489 -0.3882
      vertex 16.2500 1.2990 -0.7500
    endloop
  endfacet
  facet normal 1.000000 0.000000 0.000000
    outer loop
      vertex 25.2500 0.0000 0.0000
      vertex 25.2500 1.2990 -0.7500
      vertex 25.2500 1.4489 -0.3882
    endloop
  endfacet
  facet normal 0.000000 -0.991445 0.130526
    outer loop
      vertex 16.2500 1.4489 -0.3882
      vertex 25.2500 1.5000 0.0000
      vertex 16.2500 1.5000 0.0000
    endloop
  endfacet
  facet normal 0.000000 -0.991445 0.130526
    outer loop
      vertex 16.2500 1.4489 -0.3882
      vertex 25.2500 1.4489 -0.3882
      vertex 25.2500 1.5000 0.0000
    endloop
  endfacet
  facet normal -1.000000 0.000000 0.000000
    outer loop
      vertex 16.2500 0.0000 0.0000
      vertex 16.2500 1.5000 0.0000
      vertex 16.2500 1.4489 -0.3882
    endloop
  endfacet
  facet normal 1.000000 0.000000 0.000000
    outer loop
      vertex 25.2500 0.0000 0.0000
      vertex 25.2500 1.4489 -0.3882
      vertex 25.2500 1.5000 0.0000
    endloop
  endfacet
  facet normal 0.000000 0.000000 1.000000
    outer loop
      vertex -20.2500 -7.0000 -1.5000
      vertex -16.7500 -7.0000 -1.5000
      vertex -16.7500 7.0000 -1.5000
    endloop
  endfacet
  facet normal 0.000000 0.000000 1.000000
    outer loop
      vertex -20.2500 -7.0000 -1.5000
      vertex -16.7500 7.0000 -1.5000
      vertex -20.2500 7.0000 -1.5000
    endloop
  endfacet
  facet normal 0.000000 0.000000 -1.000000
    outer loop
      vertex -20.2500 -7.0000 1.5000
      vertex -16.7500 7.0000 1.5000
      vertex -16.7500 -7.0000 1.5000
    endloop
  endfacet
  facet normal 0.000000 0.000000 -1.000000
    outer loop
      vertex -20.2500 -7.0000 1.5000
      vertex -20.2500 7.0000 1.5000
      vertex -16.7500 7.0000 1.5000
    endloop
  endfacet
  facet normal 0.000000 1.000000 0.000000
    outer loop
      vertex -20.2500 -7.0000 -1.5000
      vertex -20.2500 -7.0000 1.5000
      vertex -16.7500 -7.0000 1.5000
    endloop
  endfacet
  facet normal 0.000000 1.000000 0.000000
    outer loop
      vertex -20.2500 -7.0000 -1.5000
      vertex -16.7500 -7.0000 1.5000
      vertex -16.7500 -7.0000 -1.5000
    endloop
  endfacet
  facet normal -1.000000 0.000000 0.000000
    outer loop
      vertex -16.7500 -7.0000 -1.5000
      vertex -16.7500 -7.0000 1.5000
      vertex -16.7500 7.0000 1.5000
    endloop
  endfacet
  facet normal -1.000000 0.000000 0.000000
    outer loop
      vertex -16.7500 -7.0000 -1.5000
      vertex -16.7500 7.0000 1.5000
      vertex -16.7500 7.0000 -1.5000
    endloop
  endfacet
  facet normal 0.000000 -1.000000 0.000000
    outer loop
      vertex -16.7500 7.0000 -1.5000
      vertex -16.7500 7.0000 1.5000
      vertex -20.2500 7.0000 1.5000
    endloop
  endfacet
  facet normal 0.000000 -1.000000 0.000000
    outer loop
      vertex -16.7500 7.0000 -1.5000
      vertex -20.2500 7.0000 1.5000
      vertex -20.2500 7.0000 -1.5000
    endloop
  endfacet
  facet normal 1.000000 0.000000 0.000000
    outer loop
      vertex -20.2500 7.0000 -1.5000
      vertex -20.2500 7.0000 1.5000
      vertex -20.2500 -7.0000 1.5000
    endloop
  endfacet
  facet normal 1.000000 0.000000 0.000000
    outer loop
      vertex -20.2500 7.0000 -1.5000
      vertex -20.2500 -7.0000 1.5000
      vertex -20.2500 -7.0000 -1.5000
    endloop
  endfacet
  facet normal 0.000000 -0.995185 -0.098017
    outer loop
      vertex -20.7500 7.0000 0.0000
      vertex -19.7500 6.8655 1.3656
      vertex -20.7500 6.8655 1.3656
    endloop
  endfacet
  facet normal 0.000000 -0.995185 -0.098017
    outer loop
      vertex -20.7500 7.0000 0.0000
      vertex -19.7500 7.0000 0.0000
      vertex -19.7500 6.8655 1.3656
    endloop
  endfacet
  facet normal -1.000000 0.000000 0.000000
    outer loop
      vertex -20.7500 0.0000 0.0000
      vertex -20.7500 6.8655 1.3656
      vertex -20.7500 7.0000 0.0000
    endloop
  endfacet
  facet normal 1.000000 0.000000 0.000000
    outer loop
      vertex -19.7500 0.0000 0.0000
      vertex -19.7500 7.0000 0.0000
      vertex -19.7500 6.8655 1.3656
    endloop
  endfacet
  facet normal 0.000000 -0.956940 -0.290285
    outer loop
      vertex -20.7500 6.8655 1.3656
      vertex -19.7500 6.4672 2.6788
      vertex -20.7500 6.4672 2.6788
    endloop
  endfacet
  facet normal 0.000000 -0.956940 -0.290285
    outer loop
      vertex -20.7500 6.8655 1.3656
      vertex -19.7500 6.8655 1.3656
      vertex -19.7500 6.4672 2.6788
    endloop
  endfacet
  facet normal -1.000000 0.000000 0.000000
    outer loop
      vertex -20.7500 0.0000 0.0000
      vertex -20.7500 6.4672 2.6788
      vertex -20.7500 6.8655 1.3656
    endloop
  endfacet
  facet normal 1.000000 0.000000 0.000000
    outer loop
      vertex -19.7500 0.0000 0.0000
      vertex -19.7500 6.8655 1.3656
      vertex -19.7500 6.4672 2.6788
    endloop
  endfacet
  facet normal 0.000000 -0.881921 -0.471397
    outer loop
      vertex -20.7500 6.4672 2.6788
      vertex -19.7500 5.8203 3.8890
      vertex -20.7500 5.8203 3.8890
    endloop
  endfacet
  facet normal 0.000000 -0.881921 -0.471397
    outer loop
      vertex -20.7500 6.4672 2.6788
      vertex -19.7500 6.4672 2.6788
      vertex -19.7500 5.8203 3.8890
    endloop
  endfacet
  facet normal -1.000000 0.000000 0.000000
    outer loop
      vertex -20.7500 0.0000 0.0000
      vertex -20.7500 5.8203 3.8890
      vertex -20.7500 6.4672 2.6788
    endloop
  endfacet
  facet normal 1.000000 0.000000 0.000000
    outer loop
      vertex -19.7500 0.0000 0.0000
      vertex -19.7500 6.4672 2.6788
      vertex -19.7500 5.8203 3.8890
    endloop
  endfacet
  facet normal 0.000000 -0.773010 -0.634393
    outer loop
      vertex -20.7500 5.8203 3.8890
      vertex -19.7500 4.9497 4.9497
      vertex -20.7500 4.9497 4.9497
    endloop
  endfacet
  facet normal 0.000000 -0.773010 -0.634393
    outer loop
      vertex -20.7500 5.8203 3.8890
      vertex -19.7500 5.8203 3.8890
      vertex -19.7500 4.9497 4.9497
    endloop
  endfacet
  facet normal -1.000000 0.000000 0.000000
    outer loop
      vertex -20.7500 0.0000 0.0000
      vertex -20.7500 4.9497 4.9497
      vertex -20.7500 5.8203 3.8890
    endloop
  endfacet
  facet normal 1.000000 0.000000 0.000000
    outer loop
      vertex -19.7500 0.0000 0.0000
      vertex -19.7500 5.8203 3.8890
      vertex -19.7500 4.9497 4.9497
    endloop
  endfacet
  facet normal 0.000000 -0.634393 -0.773010
    outer loop
      vertex -20.7500 4.9497 4.9497
      vertex -19.7500 3.8890 5.8203
      vertex -20.7500 3.8890 5.8203
    endloop
  endfacet
  facet normal 0.000000 -0.634393 -0.773010
    outer loop
      vertex -20.7500 4.9497 4.9497
      vertex -19.7500 4.9497 4.9497
      vertex -19.7500 3.8890 5.8203
    endloop
  endfacet
  facet normal -1.000000 0.000000 0.000000
    outer loop
      vertex -20.7500 0.0000 0.0000
      vertex -20.7500 3.8890 5.8203
      vertex -20.7500 4.9497 4.9497
    endloop
  endfacet
  facet normal 1.000000 0.000000 0.000000
    outer loop
      vertex -19.7500 0.0000 0.0000
      vertex -19.7500 4.9497 4.9497
      vertex -19.7500 3.8890 5.8203
    endloop
  endfacet
  facet normal 0.000000 -0.471397 -0.881921
    outer loop
      vertex -20.7500 3.8890 5.8203
      vertex -19.7500 2.6788 6.4672
      vertex -20.7500 2.6788 6.4672
    endloop
  endfacet
  facet normal 0.000000 -0.471397 -0.881921
    outer loop
      vertex -20.7500 3.8890 5.8203
      vertex -19.7500 3.8890 5.8203
      vertex -19.7500 2.6788 6.4672
    endloop
  endfacet
  facet normal -1.000000 0.000000 0.000000
    outer loop
      vertex -20.7500 0.0000 0.0000
      vertex -20.7500 2.6788 6.4672
      vertex -20.7500 3.8890 5.8203
    endloop
  endfacet
  facet normal 1.000000 0.000000 0.000000
    outer loop
      vertex -19.7500 0.0000 0.0000
      vertex -19.7500 3.8890 5.8203
      vertex -19.7500 2.6788 6.4672
    endloop
  endfacet
  facet normal 0.000000 -0.290285 -0.956940
    outer loop
      vertex -20.7500 2.6788 6.4672
      vertex -19.7500 1.3656 6.8655
      vertex -20.7500 1.3656 6.8655
    endloop
  endfacet
  facet normal 0.000000 -0.290285 -0.956940
    outer loop
      vertex -20.7500 2.6788 6.4672
      vertex -19.7500 2.6788 6.4672
      vertex -19.7500 1.3656 6.8655
    endloop
  endfacet
  facet normal -1.000000 0.000000 0.000000
    outer loop
      vertex -20.7500 0.0000 0.0000
      vertex -20.7500 1.3656 6.8655
      vertex -20.7500 2.6788 6.4672
    endloop
  endfacet
  facet normal 1.000000 0.000000 0.000000
    outer loop
      vertex -19.7500 0.0000 0.0000
      vertex -19.7500 2.6788 6.4672
      vertex -19.7500 1.3656 6.8655
    endloop
  endfacet
  facet normal 0.000000 -0.098017 -0.995185
    outer loop
      vertex -20.7500 1.3656 6.8655
      vertex -19.7500 0.0000 7.0000
      vertex -20.7500 0.0000 7.0000
    endloop
  endfacet
  facet normal 0.000000 -0.098017 -0.995185
    outer loop
      vertex -20.7500 1.3656 6.8655
      vertex -19.7500 1.3656 6.8655
      vertex -19.7500 0.0000 7.0000
    endloop
  endfacet
  facet normal -1.000000 0.000000 0.000000
    outer loop
      vertex -20.7500 0.0000 0.0000
      vertex -20.7500 0.0000 7.0000
      vertex -20.7500 1.3656 6.8655
    endloop
  endfacet
  facet normal 1.000000 0.000000 0.000000
    outer loop
      vertex -19.7500 0.0000 0.0000
      vertex -19.7500 1.3656 6.8655
      vertex -19.7500 0.0000 7.0000
    endloop
  endfacet
  facet normal 0.000000 0.098017 -0.995185
    outer loop
      vertex -20.7500 0.0000 7.0000
      vertex -19.7500 -1.3656 6.8655
      vertex -20.7500 -1.3656 6.8655
    endloop
  endfacet
  facet normal 0.000000 0.098017 -0.995185
    outer loop
      vertex -20.7500 0.0000 7.0000
      vertex -19.7500 0.0000 7.0000
      vertex -19.7500 -1.3656 6.8655
    endloop
  endfacet
  facet normal -1.000000 0.000000 0.000000
    outer loop
      vertex -20.7500 0.0000 0.0000
      vertex -20.7500 -1.3656 6.8655
      vertex -20.7500 0.0000 7.0000
    endloop
  endfacet
  facet normal 1.000000 0.000000 0.000000
    outer loop
      vertex -19.7500 0.0000 0.0000
      vertex -19.7500 0.0000 7.0000
      vertex -19.7500 -1.3656 6.8655
    endloop
  endfacet
  facet normal 0.000000 0.290285 -0.956940
    outer loop
      vertex -20.7500 -1.3656 6.8655
      vertex -19.7500 -2.6788 6.4672
      vertex -20.7500 -2.6788 6.4672
    endloop
  endfacet
  facet normal 0.000000 0.290285 -0.956940
    outer loop
      vertex -20.7500 -1.3656 6.8655
      vertex -19.7500 -1.3656 6.8655
      vertex -19.7500 -2.6788 6.4672
    endloop
  endfacet
  facet normal -1.000000 0.000000 0.000000
    outer loop
      vertex -20.7500 0.0000 0.0000
      vertex -20.7500 -2.6788 6.4672
      vertex -20.7500 -1.3656 6.8655
    endloop
  endfacet
  facet normal 1.000000 0.000000 0.000000
    outer loop
      vertex -19.7500 0.0000 0.0000
      vertex -19.7500 -1.3656 6.8655
      vertex -19.7500 -2.6788 6.4672
    endloop
  endfacet
  facet normal 0.000000 0.471397 -0.881921
    outer loop
      vertex -20.7500 -2.6788 6.4672
      vertex -19.7500 -3.8890 5.8203
      vertex -20.7500 -3.8890 5.8203
    endloop
  endfacet
  facet normal 0.000000 0.471397 -0.881921
    outer loop
      vertex -20.7500 -2.6788 6.4672
      vertex -19.7500 -2.6788 6.4672
      vertex -19.7500 -3.8890 5.8203
    endloop
  endfacet
  facet normal -1.000000 0.000000 0.000000
    outer loop
      vertex -20.7500 0.0000 0.0000
      vertex -20.7500 -3.8890 5.8203
      vertex -20.7500 -2.6788 6.4672
    endloop
  endfacet
  facet normal 1.000000 0.000000 0.000000
    outer loop
      vertex -19.7500 0.0000 0.0000
      vertex -19.7500 -2.6788 6.4672
      vertex -19.7500 -3.8890 5.8203
    endloop
  endfacet
  facet normal 0.000000 0.634393 -0.773010
    outer loop
      vertex -20.7500 -3.8890 5.8203
      vertex -19.7500 -4.9497 4.9497
      vertex -20.7500 -4.9497 4.9497
    endloop
  endfacet
  facet normal 0.000000 0.634393 -0.773010
    outer loop
      vertex -20.7500 -3.8890 5.8203
      vertex -19.7500 -3.8890 5.8203
      vertex -19.7500 -4.9497 4.9497
    endloop
  endfacet
  facet normal -1.000000 0.000000 0.000000
    outer loop
      vertex -20.7500 0.0000 0.0000
      vertex -20.7500 -4.9497 4.9497
      vertex -20.7500 -3.8890 5.8203
    endloop
  endfacet
  facet normal 1.000000 0.000000 0.000000
    outer loop
      vertex -19.7500 0.0000 0.0000
      vertex -19.7500 -3.8890 5.8203
      vertex -19.7500 -4.9497 4.9497
    endloop
  endfacet
  facet normal 0.000000 0.773010 -0.634393
    outer loop
      vertex -20.7500 -4.9497 4.9497
      vertex -19.7500 -5.8203 3.8890
      vertex -20.7500 -5.8203 3.8890
    endloop
  endfacet
  facet normal 0.000000 0.773010 -0.634393
    outer loop
      vertex -20.7500 -4.9497 4.9497
      vertex -19.7500 -4.9497 4.9497
      vertex -19.7500 -5.8203 3.8890
    endloop
  endfacet
  facet normal -1.000000 0.000000 0.000000
    outer loop
      vertex -20.7500 0.0000 0.0000
      vertex -20.7500 -5.8203 3.8890
      vertex -20.7500 -4.9497 4.9497
    endloop
  endfacet
  facet normal 1.000000 0.000000 0.000000
    outer loop
      vertex -19.7500 0.0000 0.0000
      vertex -19.7500 -4.9497 4.9497
      vertex -19.7500 -5.8203 3.8890
    endloop
  endfacet
  facet normal 0.000000 0.881921 -0.471397
    outer loop
      vertex -20.7500 -5.8203 3.8890
      vertex -19.7500 -6.4672 2.6788
      vertex -20.7500 -6.4672 2.6788
    endloop
  endfacet
  facet normal 0.000000 0.881921 -0.471397
    outer loop
      vertex -20.7500 -5.8203 3.8890
      vertex -19.7500 -5.8203 3.8890
      vertex -19.7500 -6.4672 2.6788
    endloop
  endfacet
  facet normal -1.000000 0.000000 0.000000
    outer loop
      vertex -20.7500 0.0000 0.0000
      vertex -20.7500 -6.4672 2.6788
      vertex -20.7500 -5.8203 3.8890
    endloop
  endfacet
  facet normal 1.000000 0.000000 0.000000
    outer loop
      vertex -19.7500 0.0000 0.0000
      vertex -19.7500 -5.8203 3.8890
      vertex -19.7500 -6.4672 2.6788
    endloop
  endfacet
  facet normal 0.000000 0.956940 -0.290285
    outer loop
      vertex -20.7500 -6.4672 2.6788
      vertex -19.7500 -6.8655 1.3656
      vertex -20.7500 -6.8655 1.3656
    endloop
  endfacet
  facet normal 0.000000 0.956940 -0.290285
    outer loop
      vertex -20.7500 -6.4672 2.6788
      vertex -19.7500 -6.4672 2.6788
      vertex -19.7500 -6.8655 1.3656
    endloop
  endfacet
  facet normal -1.000000 0.000000 0.000000
    outer loop
      vertex -20.7500 0.0000 0.0000
      vertex -20.7500 -6.8655 1.3656
      vertex -20.7500 -6.4672 2.6788
    endloop
  endfacet
  facet normal 1.000000 0.000000 0.000000
    outer loop
      vertex -19.7500 0.0000 0.0000
      vertex -19.7500 -6.4672 2.6788
      vertex -19.7500 -6.8655 1.3656
    endloop
  endfacet
  facet normal 0.000000 0.995185 -0.098017
    outer loop
      vertex -20.7500 -6.8655 1.3656
      vertex -19.7500 -7.0000 0.0000
      vertex -20.7500 -7.0000 0.0000
    endloop
  endfacet
  facet normal 0.000000 0.995185 -0.098017
    outer loop
      vertex -20.7500 -6.8655 1.3656
      vertex -19.7500 -6.8655 1.3656
      vertex -19.7500 -7.0000 0.0000
    endloop
  endfacet
  facet normal -1.000000 0.000000 0.000000
    outer loop
      vertex -20.7500 0.0000 0.0000
      vertex -20.7500 -7.0000 0.0000
      vertex -20.7500 -6.8655 1.3656
    endloop
  endfacet
  facet normal 1.000000 0.000000 0.000000
    outer loop
      vertex -19.7500 0.0000 0.0000
      vertex -19.7500 -6.8655 1.3656
      vertex -19.7500 -7.0000 0.0000
    endloop
  endfacet
  facet normal 0.000000 0.995185 0.098017
    outer loop
      vertex -20.7500 -7.0000 0.0000
      vertex -19.7500 -6.8655 -1.3656
      vertex -20.7500 -6.8655 -1.3656
    endloop
  endfacet
  facet normal 0.000000 0.995185 0.098017
    outer loop
      vertex -20.7500 -7.0000 0.0000
      vertex -19.7500 -7.0000 0.0000
      vertex -19.7500 -6.8655 -1.3656
    endloop
  endfacet
  facet normal -1.000000 0.000000 0.000000
    outer loop
      vertex -20.7500 0.0000 0.0000
      vertex -20.7500 -6.8655 -1.3656
      vertex -20.7500 -7.0000 0.0000
    endloop
  endfacet
  facet normal 1.000000 0.000000 0.000000
    outer loop
      vertex -19.7500 0.0000 0.0000
      vertex -19.7500 -7.0000 0.0000
      vertex -19.7500 -6.8655 -1.3656
    endloop
  endfacet
  facet normal 0.000000 0.956940 0.290285
    outer loop
      vertex -20.7500 -6.8655 -1.3656
      vertex -19.7500 -6.4672 -2.6788
      vertex -20.7500 -6.4672 -2.6788
    endloop
  endfacet
  facet normal 0.000000 0.956940 0.290285
    outer loop
      vertex -20.7500 -6.8655 -1.3656
      vertex -19.7500 -6.8655 -1.3656
      vertex -19.7500 -6.4672 -2.6788
    endloop
  endfacet
  facet normal -1.000000 0.000000 0.000000
    outer loop
      vertex -20.7500 0.0000 0.0000
      vertex -20.7500 -6.4672 -2.6788
      vertex -20.7500 -6.8655 -1.3656
    endloop
  endfacet
  facet normal 1.000000 0.000000 0.000000
    outer loop
      vertex -19.7500 0.0000 0.0000
      vertex -19.7500 -6.8655 -1.3656
      vertex -19.7500 -6.4672 -2.6788
    endloop
  endfacet
  facet normal 0.000000 0.881921 0.471397
    outer loop
      vertex -20.7500 -6.4672 -2.6788
      vertex -19.7500 -5.8203 -3.8890
      vertex -20.7500 -5.8203 -3.8890
    endloop
  endfacet
  facet normal 0.000000 0.881921 0.471397
    outer loop
      vertex -20.7500 -6.4672 -2.6788
      vertex -19.7500 -6.4672 -2.6788
      vertex -19.7500 -5.8203 -3.8890
    endloop
  endfacet
  facet normal -1.000000 0.000000 0.000000
    outer loop
      vertex -20.7500 0.0000 0.0000
      vertex -20.7500 -5.8203 -3.8890
      vertex -20.7500 -6.4672 -2.6788
    endloop
  endfacet
  facet normal 1.000000 0.000000 0.000000
    outer loop
      vertex -19.7500 0.0000 0.0000
      vertex -19.7500 -6.4672 -2.6788
      vertex -19.7500 -5.8203 -3.8890
    endloop
  endfacet
  facet normal 0.000000 0.773010 0.634393
    outer loop
      vertex -20.7500 -5.8203 -3.8890
      vertex -19.7500 -4.9497 -4.9497
      vertex -20.7500 -4.9497 -4.9497
    endloop
  endfacet
  facet normal 0.000000 0.773010 0.634393
    outer loop
      vertex -20.7500 -5.8203 -3.8890
      vertex -19.7500 -5.8203 -3.8890
      vertex -19.7500 -4.9497 -4.9497
    endloop
  endfacet
  facet normal -1.000000 0.000000 0.000000
    outer loop
      vertex -20.7500 0.0000 0.0000
      vertex -20.7500 -4.9497 -4.9497
      vertex -20.7500 -5.8203 -3.8890
    endloop
  endfacet
  facet normal 1.000000 0.000000 0.000000
    outer loop
      vertex -19.7500 0.0000 0.0000
      vertex -19.7500 -5.8203 -3.8890
      vertex -19.7500 -4.9497 -4.9497
    endloop
  endfacet
  facet normal 0.000000 0.634393 0.773010
    outer loop
      vertex -20.7500 -4.9497 -4.9497
      vertex -19.7500 -3.8890 -5.8203
      vertex -20.7500 -3.8890 -5.8203
    endloop
  endfacet
  facet normal 0.000000 0.634393 0.773010
    outer loop
      vertex -20.7500 -4.9497 -4.9497
      vertex -19.7500 -4.9497 -4.9497
      vertex -19.7500 -3.8890 -5.8203
    endloop
  endfacet
  facet normal -1.000000 0.000000 0.000000
    outer loop
      vertex -20.7500 0.0000 0.0000
      vertex -20.7500 -3.8890 -5.8203
      vertex -20.7500 -4.9497 -4.9497
    endloop
  endfacet
  facet normal 1.000000 0.000000 0.000000
    outer loop
      vertex -19.7500 0.0000 0.0000
      vertex -19.7500 -4.9497 -4.9497
      vertex -19.7500 -3.8890 -5.8203
    endloop
  endfacet
  facet normal 0.000000 0.471397 0.881921
    outer loop
      vertex -20.7500 -3.8890 -5.8203
      vertex -19.7500 -2.6788 -6.4672
      vertex -20.7500 -2.6788 -6.4672
    endloop
  endfacet
  facet normal 0.000000 0.471397 0.881921
    outer loop
      vertex -20.7500 -3.8890 -5.8203
      vertex -19.7500 -3.8890 -5.8203
      vertex -19.7500 -2.6788 -6.4672
    endloop
  endfacet
  facet normal -1.000000 0.000000 0.000000
    outer loop
      vertex -20.7500 0.0000 0.0000
      vertex -20.7500 -2.6788 -6.4672
      vertex -20.7500 -3.8890 -5.8203
    endloop
  endfacet
  facet normal 1.000000 0.000000 0.000000
    outer loop
      vertex -19.7500 0.0000 0.0000
      vertex -19.7500 -3.8890 -5.8203
      vertex -19.7500 -2.6788 -6.4672
    endloop
  endfacet
  facet normal 0.000000 0.290285 0.956940
    outer loop
      vertex -20.7500 -2.6788 -6.4672
      vertex -19.7500 -1.3656 -6.8655
      vertex -20.7500 -1.3656 -6.8655
    endloop
  endfacet
  facet normal 0.000000 0.290285 0.956940
    outer loop
      vertex -20.7500 -2.6788 -6.4672
      vertex -19.7500 -2.6788 -6.4672
      vertex -19.7500 -1.3656 -6.8655
    endloop
  endfacet
  facet normal -1.000000 0.000000 0.000000
    outer loop
      vertex -20.7500 0.0000 0.0000
      vertex -20.7500 -1.3656 -6.8655
      vertex -20.7500 -2.6788 -6.4672
    endloop
  endfacet
  facet normal 1.000000 0.000000 0.000000
    outer loop
      vertex -19.7500 0.0000 0.0000
      vertex -19.7500 -2.6788 -6.4672
      vertex -19.7500 -1.3656 -6.8655
    endloop
  endfacet
  facet normal 0.000000 0.098017 0.995185
    outer loop
      vertex -20.7500 -1.3656 -6.8655
      vertex -19.7500 -0.0000 -7.0000
      vertex -20.7500 -0.0000 -7.0000
    endloop
  endfacet
  facet normal 0.000000 0.098017 0.995185
    outer loop
      vertex -20.7500 -1.3656 -6.8655
      vertex -19.7500 -1.3656 -6.8655
      vertex -19.7500 -0.0000 -7.0000
    endloop
  endfacet
  facet normal -1.000000 0.000000 0.000000
    outer loop
      vertex -20.7500 0.0000 0.0000
      vertex -20.7500 -0.0000 -7.0000
      vertex -20.7500 -1.3656 -6.8655
    endloop
  endfacet
  facet normal 1.000000 0.000000 0.000000
    outer loop
      vertex -19.7500 0.0000 0.0000
      vertex -19.7500 -1.3656 -6.8655
      vertex -19.7500 -0.0000 -7.0000
    endloop
  endfacet
  facet normal 0.000000 -0.098017 0.995185
    outer loop
      vertex -20.7500 -0.0000 -7.0000
      vertex -19.7500 1.3656 -6.8655
      vertex -20.7500 1.3656 -6.8655
    endloop
  endfacet
  facet normal 0.000000 -0.098017 0.995185
    outer loop
      vertex -20.7500 -0.0000 -7.0000
      vertex -19.7500 -0.0000 -7.0000
      vertex -19.7500 1.3656 -6.8655
    endloop
  endfacet
  facet normal -1.000000 0.000000 0.000000
    outer loop
      vertex -20.7500 0.0000 0.0000
      vertex -20.7500 1.3656 -6.8655
      vertex -20.7500 -0.0000 -7.0000
    endloop
  endfacet
  facet normal 1.000000 0.000000 0.000000
    outer loop
      vertex -19.7500 0.0000 0.0000
      vertex -19.7500 -0.0000 -7.0000
      vertex -19.7500 1.3656 -6.8655
    endloop
  endfacet
  facet normal 0.000000 -0.290285 0.956940
    outer loop
      vertex -20.7500 1.3656 -6.8655
      vertex -19.7500 2.6788 -6.4672
      vertex -20.7500 2.6788 -6.4672
    endloop
  endfacet
  facet normal 0.000000 -0.290285 0.956940
    outer loop
      vertex -20.7500 1.3656 -6.8655
      vertex -19.7500 1.3656 -6.8655
      vertex -19.7500 2.6788 -6.4672
    endloop
  endfacet
  facet normal -1.000000 0.000000 0.000000
    outer loop
      vertex -20.7500 0.0000 0.0000
      vertex -20.7500 2.6788 -6.4672
      vertex -20.7500 1.3656 -6.8655
    endloop
  endfacet
  facet normal 1.000000 0.000000 0.000000
    outer loop
      vertex -19.7500 0.0000 0.0000
      vertex -19.7500 1.3656 -6.8655
      vertex -19.7500 2.6788 -6.4672
    endloop
  endfacet
  facet normal 0.000000 -0.471397 0.881921
    outer loop
      vertex -20.7500 2.6788 -6.4672
      vertex -19.7500 3.8890 -5.8203
      vertex -20.7500 3.8890 -5.8203
    endloop
  endfacet
  facet normal 0.000000 -0.471397 0.881921
    outer loop
      vertex -20.7500 2.6788 -6.4672
      vertex -19.7500 2.6788 -6.4672
      vertex -19.7500 3.8890 -5.8203
    endloop
  endfacet
  facet normal -1.000000 0.000000 0.000000
    outer loop
      vertex -20.7500 0.0000 0.0000
      vertex -20.7500 3.8890 -5.8203
      vertex -20.7500 2.6788 -6.4672
    endloop
  endfacet
  facet normal 1.000000 0.000000 0.000000
    outer loop
      vertex -19.7500 0.0000 0.0000
      vertex -19.7500 2.6788 -6.4672
      vertex -19.7500 3.8890 -5.8203
    endloop
  endfacet
  facet normal 0.000000 -0.634393 0.773010
    outer loop
      vertex -20.7500 3.8890 -5.8203
      vertex -19.7500 4.9497 -4.9497
      vertex -20.7500 4.9497 -4.9497
    endloop
  endfacet
  facet normal 0.000000 -0.634393 0.773010
    outer loop
      vertex -20.7500 3.8890 -5.8203
      vertex -19.7500 3.8890 -5.8203
      vertex -19.7500 4.9497 -4.9497
    endloop
  endfacet
  facet normal -1.000000 0.000000 0.000000
    outer loop
      vertex -20.7500 0.0000 0.0000
      vertex -20.7500 4.9497 -4.9497
      vertex -20.7500 3.8890 -5.8203
    endloop
  endfacet
  facet normal 1.000000 0.000000 0.000000
    outer loop
      vertex -19.7500 0.0000 0.0000
      vertex -19.7500 3.8890 -5.8203
      vertex -19.7500 4.9497 -4.9497
    endloop
  endfacet
  facet normal 0.000000 -0.773010 0.634393
    outer loop
      vertex -20.7500 4.9497 -4.9497
      vertex -19.7500 5.8203 -3.8890
      vertex -20.7500 5.8203 -3.8890
    endloop
  endfacet
  facet normal 0.000000 -0.773010 0.634393
    outer loop
      vertex -20.7500 4.9497 -4.9497
      vertex -19.7500 4.9497 -4.9497
      vertex -19.7500 5.8203 -3.8890
    endloop
  endfacet
  facet normal -1.000000 0.000000 0.000000
    outer loop
      vertex -20.7500 0.0000 0.0000
      vertex -20.7500 5.8203 -3.8890
      vertex -20.7500 4.9497 -4.9497
    endloop
  endfacet
  facet normal 1.000000 0.000000 0.000000
    outer loop
      vertex -19.7500 0.0000 0.0000
      vertex -19.7500 4.9497 -4.9497
      vertex -19.7500 5.8203 -3.8890
    endloop
  endfacet
  facet normal 0.000000 -0.881921 0.471397
    outer loop
      vertex -20.7500 5.8203 -3.8890
      vertex -19.7500 6.4672 -2.6788
      vertex -20.7500 6.4672 -2.6788
    endloop
  endfacet
  facet normal 0.000000 -0.881921 0.471397
    outer loop
      vertex -20.7500 5.8203 -3.8890
      vertex -19.7500 5.8203 -3.8890
      vertex -19.7500 6.4672 -2.6788
    endloop
  endfacet
  facet normal -1.000000 0.000000 0.000000
    outer loop
      vertex -20.7500 0.0000 0.0000
      vertex -20.7500 6.4672 -2.6788
      vertex -20.7500 5.8203 -3.8890
    endloop
  endfacet
  facet normal 1.000000 0.000000 0.000000
    outer loop
      vertex -19.7500 0.0000 0.0000
      vertex -19.7500 5.8203 -3.8890
      vertex -19.7500 6.4672 -2.6788
    endloop
  endfacet
  facet normal 0.000000 -0.956940 0.290285
    outer loop
      vertex -20.7500 6.4672 -2.6788
      vertex -19.7500 6.8655 -1.3656
      vertex -20.7500 6.8655 -1.3656
    endloop
  endfacet
  facet normal 0.000000 -0.956940 0.290285
    outer loop
      vertex -20.7500 6.4672 -2.6788
      vertex -19.7500 6.4672 -2.6788
      vertex -19.7500 6.8655 -1.3656
    endloop
  endfacet
  facet normal -1.000000 0.000000 0.000000
    outer loop
      vertex -20.7500 0.0000 0.0000
      vertex -20.7500 6.8655 -1.3656
      vertex -20.7500 6.4672 -2.6788
    endloop
  endfacet
  facet normal 1.000000 0.000000 0.000000
    outer loop
      vertex -19.7500 0.0000 0.0000
      vertex -19.7500 6.4672 -2.6788
      vertex -19.7500 6.8655 -1.3656
    endloop
  endfacet
  facet normal 0.000000 -0.995185 0.098017
    outer loop
      vertex -20.7500 6.8655 -1.3656
      vertex -19.7500 7.0000 0.0000
      vertex -20.7500 7.0000 0.0000
    endloop
  endfacet
  facet normal 0.000000 -0.995185 0.098017
    outer loop
      vertex -20.7500 6.8655 -1.3656
      vertex -19.7500 6.8655 -1.3656
      vertex -19.7500 7.0000 0.0000
    endloop
  endfacet
  facet normal -1.000000 0.000000 0.000000
    outer loop
      vertex -20.7500 0.0000 0.0000
      vertex -20.7500 7.0000 0.0000
      vertex -20.7500 6.8655 -1.3656
    endloop
  endfacet
  facet normal 1.000000 0.000000 0.000000
    outer loop
      vertex -19.7500 0.0000 0.0000
      vertex -19.7500 6.8655 -1.3656
      vertex -19.7500 7.0000 0.0000
    endloop
  endfacet
endsolid N20_encoder_motor_reference
