solid TB6612FNG_breakout_reference
  facet normal 0.000000 0.000000 1.000000
    outer loop
      vertex -16.5000 -12.5000 0.0000
      vertex 16.5000 -12.5000 0.0000
      vertex 16.5000 12.5000 0.0000
    endloop
  endfacet
  facet normal 0.000000 0.000000 1.000000
    outer loop
      vertex -16.5000 -12.5000 0.0000
      vertex 16.5000 12.5000 0.0000
      vertex -16.5000 12.5000 0.0000
    endloop
  endfacet
  facet normal 0.000000 0.000000 -1.000000
    outer loop
      vertex -16.5000 -12.5000 3.0000
      vertex 16.5000 12.5000 3.0000
      vertex 16.5000 -12.5000 3.0000
    endloop
  endfacet
  facet normal 0.000000 0.000000 -1.000000
    outer loop
      vertex -16.5000 -12.5000 3.0000
      vertex -16.5000 12.5000 3.0000
      vertex 16.5000 12.5000 3.0000
    endloop
  endfacet
  facet normal 0.000000 1.000000 0.000000
    outer loop
      vertex -16.5000 -12.5000 0.0000
      vertex -16.5000 -12.5000 3.0000
      vertex 16.5000 -12.5000 3.0000
    endloop
  endfacet
  facet normal 0.000000 1.000000 0.000000
    outer loop
      vertex -16.5000 -12.5000 0.0000
      vertex 16.5000 -12.5000 3.0000
      vertex 16.5000 -12.5000 0.0000
    endloop
  endfacet
  facet normal -1.000000 0.000000 0.000000
    outer loop
      vertex 16.5000 -12.5000 0.0000
      vertex 16.5000 -12.5000 3.0000
      vertex 16.5000 12.5000 3.0000
    endloop
  endfacet
  facet normal -1.000000 0.000000 0.000000
    outer loop
      vertex 16.5000 -12.5000 0.0000
      vertex 16.5000 12.5000 3.0000
      vertex 16.5000 12.5000 0.0000
    endloop
  endfacet
  facet normal 0.000000 -1.000000 0.000000
    outer loop
      vertex 16.5000 12.5000 0.0000
      vertex 16.5000 12.5000 3.0000
      vertex -16.5000 12.5000 3.0000
    endloop
  endfacet
  facet normal 0.000000 -1.000000 0.000000
    outer loop
      vertex 16.5000 12.5000 0.0000
      vertex -16.5000 12.5000 3.0000
      vertex -16.5000 12.5000 0.0000
    endloop
  endfacet
  facet normal 1.000000 0.000000 0.000000
    outer loop
      vertex -16.5000 12.5000 0.0000
      vertex -16.5000 12.5000 3.0000
      vertex -16.5000 -12.5000 3.0000
    endloop
  endfacet
  facet normal 1.000000 0.000000 0.000000
    outer loop
      vertex -16.5000 12.5000 0.0000
      vertex -16.5000 -12.5000 3.0000
      vertex -16.5000 -12.5000 0.0000
    endloop
  endfacet
  facet normal 0.000000 0.000000 1.000000
    outer loop
      vertex -14.5000 -12.5000 3.0000
      vertex -12.5000 -12.5000 3.0000
      vertex -12.5000 12.5000 3.0000
    endloop
  endfacet
  facet normal 0.000000 0.000000 1.000000
    outer loop
      vertex -14.5000 -12.5000 3.0000
      vertex -12.5000 12.5000 3.0000
      vertex -14.5000 12.5000 3.0000
    endloop
  endfacet
  facet normal 0.000000 0.000000 -1.000000
    outer loop
      vertex -14.5000 -12.5000 8.0000
      vertex -12.5000 12.5000 8.0000
      vertex -12.5000 -12.5000 8.0000
    endloop
  endfacet
  facet normal 0.000000 0.000000 -1.000000
    outer loop
      vertex -14.5000 -12.5000 8.0000
      vertex -14.5000 12.5000 8.0000
      vertex -12.5000 12.5000 8.0000
    endloop
  endfacet
  facet normal 0.000000 1.000000 0.000000
    outer loop
      vertex -14.5000 -12.5000 3.0000
      vertex -14.5000 -12.5000 8.0000
      vertex -12.5000 -12.5000 8.0000
    endloop
  endfacet
  facet normal 0.000000 1.000000 0.000000
    outer loop
      vertex -14.5000 -12.5000 3.0000
      vertex -12.5000 -12.5000 8.0000
      vertex -12.5000 -12.5000 3.0000
    endloop
  endfacet
  facet normal -1.000000 0.000000 0.000000
    outer loop
      vertex -12.5000 -12.5000 3.0000
      vertex -12.5000 -12.5000 8.0000
      vertex -12.5000 12.5000 8.0000
    endloop
  endfacet
  facet normal -1.000000 0.000000 0.000000
    outer loop
      vertex -12.5000 -12.5000 3.0000
      vertex -12.5000 12.5000 8.0000
      vertex -12.5000 12.5000 3.0000
    endloop
  endfacet
  facet normal 0.000000 -1.000000 0.000000
    outer loop
      vertex -12.5000 12.5000 3.0000
      vertex -12.5000 12.5000 8.0000
      vertex -14.5000 12.5000 8.0000
    endloop
  endfacet
  facet normal 0.000000 -1.000000 0.000000
    outer loop
      vertex -12.5000 12.5000 3.0000
      vertex -14.5000 12.5000 8.0000
      vertex -14.5000 12.5000 3.0000
    endloop
  endfacet
  facet normal 1.000000 0.000000 0.000000
    outer loop
      vertex -14.5000 12.5000 3.0000
      vertex -14.5000 12.5000 8.0000
      vertex -14.5000 -12.5000 8.0000
    endloop
  endfacet
  facet normal 1.000000 0.000000 0.000000
    outer loop
      vertex -14.5000 12.5000 3.0000
      vertex -14.5000 -12.5000 8.0000
      vertex -14.5000 -12.5000 3.0000
    endloop
  endfacet
  facet normal 0.000000 0.000000 1.000000
    outer loop
      vertex 12.5000 -12.5000 3.0000
      vertex 14.5000 -12.5000 3.0000
      vertex 14.5000 12.5000 3.0000
    endloop
  endfacet
  facet normal 0.000000 0.000000 1.000000
    outer loop
      vertex 12.5000 -12.5000 3.0000
      vertex 14.5000 12.5000 3.0000
      vertex 12.5000 12.5000 3.0000
    endloop
  endfacet
  facet normal 0.000000 0.000000 -1.000000
    outer loop
      vertex 12.5000 -12.5000 8.0000
      vertex 14.5000 12.5000 8.0000
      vertex 14.5000 -12.5000 8.0000
    endloop
  endfacet
  facet normal 0.000000 0.000000 -1.000000
    outer loop
      vertex 12.5000 -12.5000 8.0000
      vertex 12.5000 12.5000 8.0000
      vertex 14.5000 12.5000 8.0000
    endloop
  endfacet
  facet normal 0.000000 1.000000 0.000000
    outer loop
      vertex 12.5000 -12.5000 3.0000
      vertex 12.5000 -12.5000 8.0000
      vertex 14.5000 -12.5000 8.0000
    endloop
  endfacet
  facet normal 0.000000 1.000000 0.000000
    outer loop
      vertex 12.5000 -12.5000 3.0000
      vertex 14.5000 -12.5000 8.0000
      vertex 14.5000 -12.5000 3.0000
    endloop
  endfacet
  facet normal -1.000000 0.000000 0.000000
    outer loop
      vertex 14.5000 -12.5000 3.0000
      vertex 14.5000 -12.5000 8.0000
      vertex 14.5000 12.5000 8.0000
    endloop
  endfacet
  facet normal -1.000000 0.000000 0.000000
    outer loop
      vertex 14.5000 -12.5000 3.0000
      vertex 14.5000 12.5000 8.0000
      vertex 14.5000 12.5000 3.0000
    endloop
  endfacet
  facet normal 0.000000 -1.000000 0.000000
    outer loop
      vertex 14.5000 12.5000 3.0000
      vertex 14.5000 12.5000 8.0000
      vertex 12.5000 12.5000 8.0000
    endloop
  endfacet
  facet normal 0.000000 -1.000000 0.000000
    outer loop
      vertex 14.5000 12.5000 3.0000
      vertex 12.5000 12.5000 8.0000
      vertex 12.5000 12.5000 3.0000
    endloop
  endfacet
  facet normal 1.000000 0.000000 0.000000
    outer loop
      vertex 12.5000 12.5000 3.0000
      vertex 12.5000 12.5000 8.0000
      vertex 12.5000 -12.5000 8.0000
    endloop
  endfacet
  facet normal 1.000000 0.000000 0.000000
    outer loop
      vertex 12.5000 12.5000 3.0000
      vertex 12.5000 -12.5000 8.0000
      vertex 12.5000 -12.5000 3.0000
    endloop
  endfacet
endsolid TB6612FNG_breakout_reference
