solid VL53L1X_reference
  facet normal 0.000000 0.000000 1.000000
    outer loop
      vertex -10.5000 -8.5000 0.0000
      vertex 10.5000 -8.5000 0.0000
      vertex 10.5000 8.5000 0.0000
    endloop
  endfacet
  facet normal 0.000000 0.000000 1.000000
    outer loop
      vertex -10.5000 -8.5000 0.0000
      vertex 10.5000 8.5000 0.0000
      vertex -10.5000 8.5000 0.0000
    endloop
  endfacet
  facet normal 0.000000 0.000000 -1.000000
    outer loop
      vertex -10.5000 -8.5000 3.0000
      vertex 10.5000 8.5000 3.0000
      vertex 10.5000 -8.5000 3.0000
    endloop
  endfacet
  facet normal 0.000000 0.000000 -1.000000
    outer loop
      vertex -10.5000 -8.5000 3.0000
      vertex -10.5000 8.5000 3.0000
      vertex 10.5000 8.5000 3.0000
    endloop
  endfacet
  facet normal 0.000000 1.000000 0.000000
    outer loop
      vertex -10.5000 -8.5000 0.0000
      vertex -10.5000 -8.5000 3.0000
      vertex 10.5000 -8.5000 3.0000
    endloop
  endfacet
  facet normal 0.000000 1.000000 0.000000
    outer loop
      vertex -10.5000 -8.5000 0.0000
      vertex 10.5000 -8.5000 3.0000
      vertex 10.5000 -8.5000 0.0000
    endloop
  endfacet
  facet normal -1.000000 0.000000 0.000000
    outer loop
      vertex 10.5000 -8.5000 0.0000
      vertex 10.5000 -8.5000 3.0000
      vertex 10.5000 8.5000 3.0000
    endloop
  endfacet
  facet normal -1.000000 0.000000 0.000000
    outer loop
      vertex 10.5000 -8.5000 0.0000
      vertex 10.5000 8.5000 3.0000
      vertex 10.5000 8.5000 0.0000
    endloop
  endfacet
  facet normal 0.000000 -1.000000 0.000000
    outer loop
      vertex 10.5000 8.5000 0.0000
      vertex 10.5000 8.5000 3.0000
      vertex -10.5000 8.5000 3.0000
    endloop
  endfacet
  facet normal 0.000000 -1.000000 0.000000
    outer loop
      vertex 10.5000 8.5000 0.0000
      vertex -10.5000 8.5000 3.0000
      vertex -10.5000 8.5000 0.0000
    endloop
  endfacet
  facet normal 1.000000 0.000000 0.000000
    outer loop
      vertex -10.5000 8.5000 0.0000
      vertex -10.5000 8.5000 3.0000
      vertex -10.5000 -8.5000 3.0000
    endloop
  endfacet
  facet normal 1.000000 0.000000 0.000000
    outer loop
      vertex -10.5000 8.5000 0.0000
      vertex -10.5000 -8.5000 3.0000
      vertex -10.5000 -8.5000 0.0000
    endloop
  endfacet
  facet normal 0.991445 0.130526 0.000000
    outer loop
      vertex 7.0000 0.0000 3.0000
      vertex 6.8637 1.0353 3.0000
      vertex 6.8637 1.0353 6.0000
    endloop
  endfacet
  facet normal 0.991445 0.130526 0.000000
    outer loop
      vertex 7.0000 0.0000 3.0000
      vertex 6.8637 1.0353 6.0000
      vertex 7.0000 0.0000 6.0000
    endloop
  endfacet
  facet normal 0.000000 0.000000 -1.000000
    outer loop
      vertex 3.0000 0.0000 3.0000
      vertex 6.8637 1.0353 3.0000
      vertex 7.0000 0.0000 3.0000
    endloop
  endfacet
  facet normal 0.000000 0.000000 1.000000
    outer loop
      vertex 3.0000 0.0000 6.0000
      vertex 7.0000 0.0000 6.0000
      vertex 6.8637 1.0353 6.0000
    endloop
  endfacet
  facet normal 0.923880 0.382683 0.000000
    outer loop
      vertex 6.8637 1.0353 3.0000
      vertex 6.4641 2.0000 3.0000
      vertex 6.4641 2.0000 6.0000
    endloop
  endfacet
  facet normal 0.923880 0.382683 0.000000
    outer loop
      vertex 6.8637 1.0353 3.0000
      vertex 6.4641 2.0000 6.0000
      vertex 6.8637 1.0353 6.0000
    endloop
  endfacet
  facet normal 0.000000 0.000000 -1.000000
    outer loop
      vertex 3.0000 0.0000 3.0000
      vertex 6.4641 2.0000 3.0000
      vertex 6.8637 1.0353 3.0000
    endloop
  endfacet
  facet normal 0.000000 0.000000 1.000000
    outer loop
      vertex 3.0000 0.0000 6.0000
      vertex 6.8637 1.0353 6.0000
      vertex 6.4641 2.0000 6.0000
    endloop
  endfacet
  facet normal 0.793353 0.608761 0.000000
    outer loop
      vertex 6.4641 2.0000 3.0000
      vertex 5.8284 2.8284 3.0000
      vertex 5.8284 2.8284 6.0000
    endloop
  endfacet
  facet normal 0.793353 0.608761 0.000000
    outer loop
      vertex 6.4641 2.0000 3.0000
      vertex 5.8284 2.8284 6.0000
      vertex 6.4641 2.0000 6.0000
    endloop
  endfacet
  facet normal 0.000000 0.000000 -1.000000
    outer loop
      vertex 3.0000 0.0000 3.0000
      vertex 5.8284 2.8284 3.0000
      vertex 6.4641 2.0000 3.0000
    endloop
  endfacet
  facet normal 0.000000 0.000000 1.000000
    outer loop
      vertex 3.0000 0.0000 6.0000
      vertex 6.4641 2.0000 6.0000
      vertex 5.8284 2.8284 6.0000
    endloop
  endfacet
  facet normal 0.608761 0.793353 0.000000
    outer loop
      vertex 5.8284 2.8284 3.0000
      vertex 5.0000 3.4641 3.0000
      vertex 5.0000 3.4641 6.0000
    endloop
  endfacet
  facet normal 0.608761 0.793353 0.000000
    outer loop
      vertex 5.8284 2.8284 3.0000
      vertex 5.0000 3.4641 6.0000
      vertex 5.8284 2.8284 6.0000
    endloop
  endfacet
  facet normal 0.000000 0.000000 -1.000000
    outer loop
      vertex 3.0000 0.0000 3.0000
      vertex 5.0000 3.4641 3.0000
      vertex 5.8284 2.8284 3.0000
    endloop
  endfacet
  facet normal 0.000000 0.000000 1.000000
    outer loop
      vertex 3.0000 0.0000 6.0000
      vertex 5.8284 2.8284 6.0000
      vertex 5.0000 3.4641 6.0000
    endloop
  endfacet
  facet normal 0.382683 0.923880 0.000000
    outer loop
      vertex 5.0000 3.4641 3.0000
      vertex 4.0353 3.8637 3.0000
      vertex 4.0353 3.8637 6.0000
    endloop
  endfacet
  facet normal 0.382683 0.923880 0.000000
    outer loop
      vertex 5.0000 3.4641 3.0000
      vertex 4.0353 3.8637 6.0000
      vertex 5.0000 3.4641 6.0000
    endloop
  endfacet
  facet normal 0.000000 0.000000 -1.000000
    outer loop
      vertex 3.0000 0.0000 3.0000
      vertex 4.0353 3.8637 3.0000
      vertex 5.0000 3.4641 3.0000
    endloop
  endfacet
  facet normal 0.000000 0.000000 1.000000
    outer loop
      vertex 3.0000 0.0000 6.0000
      vertex 5.0000 3.4641 6.0000
      vertex 4.0353 3.8637 6.0000
    endloop
  endfacet
  facet normal 0.130526 0.991445 0.000000
    outer loop
      vertex 4.0353 3.8637 3.0000
      vertex 3.0000 4.0000 3.0000
      vertex 3.0000 4.0000 6.0000
    endloop
  endfacet
  facet normal 0.130526 0.991445 0.000000
    outer loop
      vertex 4.0353 3.8637 3.0000
      vertex 3.0000 4.0000 6.0000
      vertex 4.0353 3.8637 6.0000
    endloop
  endfacet
  facet normal 0.000000 0.000000 -1.000000
    outer loop
      vertex 3.0000 0.0000 3.0000
      vertex 3.0000 4.0000 3.0000
      vertex 4.0353 3.8637 3.0000
    endloop
  endfacet
  facet normal 0.000000 0.000000 1.000000
    outer loop
      vertex 3.0000 0.0000 6.0000
      vertex 4.0353 3.8637 6.0000
      vertex 3.0000 4.0000 6.0000
    endloop
  endfacet
  facet normal -0.130526 0.991445 0.000000
    outer loop
      vertex 3.0000 4.0000 3.0000
      vertex 1.9647 3.8637 3.0000
      vertex 1.9647 3.8637 6.0000
    endloop
  endfacet
  facet normal -0.130526 0.991445 0.000000
    outer loop
      vertex 3.0000 4.0000 3.0000
      vertex 1.9647 3.8637 6.0000
      vertex 3.0000 4.0000 6.0000
    endloop
  endfacet
  facet normal 0.000000 0.000000 -1.000000
    outer loop
      vertex 3.0000 0.0000 3.0000
      vertex 1.9647 3.8637 3.0000
      vertex 3.0000 4.0000 3.0000
    endloop
  endfacet
  facet normal 0.000000 0.000000 1.000000
    outer loop
      vertex 3.0000 0.0000 6.0000
      vertex 3.0000 4.0000 6.0000
      vertex 1.9647 3.8637 6.0000
    endloop
  endfacet
  facet normal -0.382683 0.923880 0.000000
    outer loop
      vertex 1.9647 3.8637 3.0000
      vertex 1.0000 3.4641 3.0000
      vertex 1.0000 3.4641 6.0000
    endloop
  endfacet
  facet normal -0.382683 0.923880 0.000000
    outer loop
      vertex 1.9647 3.8637 3.0000
      vertex 1.0000 3.4641 6.0000
      vertex 1.9647 3.8637 6.0000
    endloop
  endfacet
  facet normal 0.000000 0.000000 -1.000000
    outer loop
      vertex 3.0000 0.0000 3.0000
      vertex 1.0000 3.4641 3.0000
      vertex 1.9647 3.8637 3.0000
    endloop
  endfacet
  facet normal 0.000000 0.000000 1.000000
    outer loop
      vertex 3.0000 0.0000 6.0000
      vertex 1.9647 3.8637 6.0000
      vertex 1.0000 3.4641 6.0000
    endloop
  endfacet
  facet normal -0.608761 0.793353 0.000000
    outer loop
      vertex 1.0000 3.4641 3.0000
      vertex 0.1716 2.8284 3.0000
      vertex 0.1716 2.8284 6.0000
    endloop
  endfacet
  facet normal -0.608761 0.793353 0.000000
    outer loop
      vertex 1.0000 3.4641 3.0000
      vertex 0.1716 2.8284 6.0000
      vertex 1.0000 3.4641 6.0000
    endloop
  endfacet
  facet normal 0.000000 0.000000 -1.000000
    outer loop
      vertex 3.0000 0.0000 3.0000
      vertex 0.1716 2.8284 3.0000
      vertex 1.0000 3.4641 3.0000
    endloop
  endfacet
  facet normal 0.000000 0.000000 1.000000
    outer loop
      vertex 3.0000 0.0000 6.0000
      vertex 1.0000 3.4641 6.0000
      vertex 0.1716 2.8284 6.0000
    endloop
  endfacet
  facet normal -0.793353 0.608761 0.000000
    outer loop
      vertex 0.1716 2.8284 3.0000
      vertex -0.4641 2.0000 3.0000
      vertex -0.4641 2.0000 6.0000
    endloop
  endfacet
  facet normal -0.793353 0.608761 0.000000
    outer loop
      vertex 0.1716 2.8284 3.0000
      vertex -0.4641 2.0000 6.0000
      vertex 0.1716 2.8284 6.0000
    endloop
  endfacet
  facet normal 0.000000 0.000000 -1.000000
    outer loop
      vertex 3.0000 0.0000 3.0000
      vertex -0.4641 2.0000 3.0000
      vertex 0.1716 2.8284 3.0000
    endloop
  endfacet
  facet normal 0.000000 0.000000 1.000000
    outer loop
      vertex 3.0000 0.0000 6.0000
      vertex 0.1716 2.8284 6.0000
      vertex -0.4641 2.0000 6.0000
    endloop
  endfacet
  facet normal -0.923880 0.382683 0.000000
    outer loop
      vertex -0.4641 2.0000 3.0000
      vertex -0.8637 1.0353 3.0000
      vertex -0.8637 1.0353 6.0000
    endloop
  endfacet
  facet normal -0.923880 0.382683 0.000000
    outer loop
      vertex -0.4641 2.0000 3.0000
      vertex -0.8637 1.0353 6.0000
      vertex -0.4641 2.0000 6.0000
    endloop
  endfacet
  facet normal 0.000000 0.000000 -1.000000
    outer loop
      vertex 3.0000 0.0000 3.0000
      vertex -0.8637 1.0353 3.0000
      vertex -0.4641 2.0000 3.0000
    endloop
  endfacet
  facet normal 0.000000 0.000000 1.000000
    outer loop
      vertex 3.0000 0.0000 6.0000
      vertex -0.4641 2.0000 6.0000
      vertex -0.8637 1.0353 6.0000
    endloop
  endfacet
  facet normal -0.991445 0.130526 0.000000
    outer loop
      vertex -0.8637 1.0353 3.0000
      vertex -1.0000 0.0000 3.0000
      vertex -1.0000 0.0000 6.0000
    endloop
  endfacet
  facet normal -0.991445 0.130526 0.000000
    outer loop
      vertex -0.8637 1.0353 3.0000
      vertex -1.0000 0.0000 6.0000
      vertex -0.8637 1.0353 6.0000
    endloop
  endfacet
  facet normal 0.000000 0.000000 -1.000000
    outer loop
      vertex 3.0000 0.0000 3.0000
      vertex -1.0000 0.0000 3.0000
      vertex -0.8637 1.0353 3.0000
    endloop
  endfacet
  facet normal 0.000000 0.000000 1.000000
    outer loop
      vertex 3.0000 0.0000 6.0000
      vertex -0.8637 1.0353 6.0000
      vertex -1.0000 0.0000 6.0000
    endloop
  endfacet
  facet normal -0.991445 -0.130526 0.000000
    outer loop
      vertex -1.0000 0.0000 3.0000
      vertex -0.8637 -1.0353 3.0000
      vertex -0.8637 -1.0353 6.0000
    endloop
  endfacet
  facet normal -0.991445 -0.130526 0.000000
    outer loop
      vertex -1.0000 0.0000 3.0000
      vertex -0.8637 -1.0353 6.0000
      vertex -1.0000 0.0000 6.0000
    endloop
  endfacet
  facet normal 0.000000 0.000000 -1.000000
    outer loop
      vertex 3.0000 0.0000 3.0000
      vertex -0.8637 -1.0353 3.0000
      vertex -1.0000 0.0000 3.0000
    endloop
  endfacet
  facet normal 0.000000 0.000000 1.000000
    outer loop
      vertex 3.0000 0.0000 6.0000
      vertex -1.0000 0.0000 6.0000
      vertex -0.8637 -1.0353 6.0000
    endloop
  endfacet
  facet normal -0.923880 -0.382683 0.000000
    outer loop
      vertex -0.8637 -1.0353 3.0000
      vertex -0.4641 -2.0000 3.0000
      vertex -0.4641 -2.0000 6.0000
    endloop
  endfacet
  facet normal -0.923880 -0.382683 0.000000
    outer loop
      vertex -0.8637 -1.0353 3.0000
      vertex -0.4641 -2.0000 6.0000
      vertex -0.8637 -1.0353 6.0000
    endloop
  endfacet
  facet normal 0.000000 0.000000 -1.000000
    outer loop
      vertex 3.0000 0.0000 3.0000
      vertex -0.4641 -2.0000 3.0000
      vertex -0.8637 -1.0353 3.0000
    endloop
  endfacet
  facet normal 0.000000 0.000000 1.000000
    outer loop
      vertex 3.0000 0.0000 6.0000
      vertex -0.8637 -1.0353 6.0000
      vertex -0.4641 -2.0000 6.0000
    endloop
  endfacet
  facet normal -0.793353 -0.608761 0.000000
    outer loop
      vertex -0.4641 -2.0000 3.0000
      vertex 0.1716 -2.8284 3.0000
      vertex 0.1716 -2.8284 6.0000
    endloop
  endfacet
  facet normal -0.793353 -0.608761 0.000000
    outer loop
      vertex -0.4641 -2.0000 3.0000
      vertex 0.1716 -2.8284 6.0000
      vertex -0.4641 -2.0000 6.0000
    endloop
  endfacet
  facet normal 0.000000 0.000000 -1.000000
    outer loop
      vertex 3.0000 0.0000 3.0000
      vertex 0.1716 -2.8284 3.0000
      vertex -0.4641 -2.0000 3.0000
    endloop
  endfacet
  facet normal 0.000000 0.000000 1.000000
    outer loop
      vertex 3.0000 0.0000 6.0000
      vertex -0.4641 -2.0000 6.0000
      vertex 0.1716 -2.8284 6.0000
    endloop
  endfacet
  facet normal -0.608761 -0.793353 0.000000
    outer loop
      vertex 0.1716 -2.8284 3.0000
      vertex 1.0000 -3.4641 3.0000
      vertex 1.0000 -3.4641 6.0000
    endloop
  endfacet
  facet normal -0.608761 -0.793353 0.000000
    outer loop
      vertex 0.1716 -2.8284 3.0000
      vertex 1.0000 -3.4641 6.0000
      vertex 0.1716 -2.8284 6.0000
    endloop
  endfacet
  facet normal 0.000000 0.000000 -1.000000
    outer loop
      vertex 3.0000 0.0000 3.0000
      vertex 1.0000 -3.4641 3.0000
      vertex 0.1716 -2.8284 3.0000
    endloop
  endfacet
  facet normal 0.000000 0.000000 1.000000
    outer loop
      vertex 3.0000 0.0000 6.0000
      vertex 0.1716 -2.8284 6.0000
      vertex 1.0000 -3.4641 6.0000
    endloop
  endfacet
  facet normal -0.382683 -0.923880 0.000000
    outer loop
      vertex 1.0000 -3.4641 3.0000
      vertex 1.9647 -3.8637 3.0000
      vertex 1.9647 -3.8637 6.0000
    endloop
  endfacet
  facet normal -0.382683 -0.923880 0.000000
    outer loop
      vertex 1.0000 -3.4641 3.0000
      vertex 1.9647 -3.8637 6.0000
      vertex 1.0000 -3.4641 6.0000
    endloop
  endfacet
  facet normal 0.000000 0.000000 -1.000000
    outer loop
      vertex 3.0000 0.0000 3.0000
      vertex 1.9647 -3.8637 3.0000
      vertex 1.0000 -3.4641 3.0000
    endloop
  endfacet
  facet normal 0.000000 0.000000 1.000000
    outer loop
      vertex 3.0000 0.0000 6.0000
      vertex 1.0000 -3.4641 6.0000
      vertex 1.9647 -3.8637 6.0000
    endloop
  endfacet
  facet normal -0.130526 -0.991445 0.000000
    outer loop
      vertex 1.9647 -3.8637 3.0000
      vertex 3.0000 -4.0000 3.0000
      vertex 3.0000 -4.0000 6.0000
    endloop
  endfacet
  facet normal -0.130526 -0.991445 0.000000
    outer loop
      vertex 1.9647 -3.8637 3.0000
      vertex 3.0000 -4.0000 6.0000
      vertex 1.9647 -3.8637 6.0000
    endloop
  endfacet
  facet normal 0.000000 0.000000 -1.000000
    outer loop
      vertex 3.0000 0.0000 3.0000
      vertex 3.0000 -4.0000 3.0000
      vertex 1.9647 -3.8637 3.0000
    endloop
  endfacet
  facet normal 0.000000 0.000000 1.000000
    outer loop
      vertex 3.0000 0.0000 6.0000
      vertex 1.9647 -3.8637 6.0000
      vertex 3.0000 -4.0000 6.0000
    endloop
  endfacet
  facet normal 0.130526 -0.991445 0.000000
    outer loop
      vertex 3.0000 -4.0000 3.0000
      vertex 4.0353 -3.8637 3.0000
      vertex 4.0353 -3.8637 6.0000
    endloop
  endfacet
  facet normal 0.130526 -0.991445 0.000000
    outer loop
      vertex 3.0000 -4.0000 3.0000
      vertex 4.0353 -3.8637 6.0000
      vertex 3.0000 -4.0000 6.0000
    endloop
  endfacet
  facet normal 0.000000 0.000000 -1.000000
    outer loop
      vertex 3.0000 0.0000 3.0000
      vertex 4.0353 -3.8637 3.0000
      vertex 3.0000 -4.0000 3.0000
    endloop
  endfacet
  facet normal 0.000000 0.000000 1.000000
    outer loop
      vertex 3.0000 0.0000 6.0000
      vertex 3.0000 -4.0000 6.0000
      vertex 4.0353 -3.8637 6.0000
    endloop
  endfacet
  facet normal 0.382683 -0.923880 0.000000
    outer loop
      vertex 4.0353 -3.8637 3.0000
      vertex 5.0000 -3.4641 3.0000
      vertex 5.0000 -3.4641 6.0000
    endloop
  endfacet
  facet normal 0.382683 -0.923880 0.000000
    outer loop
      vertex 4.0353 -3.8637 3.0000
      vertex 5.0000 -3.4641 6.0000
      vertex 4.0353 -3.8637 6.0000
    endloop
  endfacet
  facet normal 0.000000 0.000000 -1.000000
    outer loop
      vertex 3.0000 0.0000 3.0000
      vertex 5.0000 -3.4641 3.0000
      vertex 4.0353 -3.8637 3.0000
    endloop
  endfacet
  facet normal 0.000000 0.000000 1.000000
    outer loop
      vertex 3.0000 0.0000 6.0000
      vertex 4.0353 -3.8637 6.0000
      vertex 5.0000 -3.4641 6.0000
    endloop
  endfacet
  facet normal 0.608761 -0.793353 0.000000
    outer loop
      vertex 5.0000 -3.4641 3.0000
      vertex 5.8284 -2.8284 3.0000
      vertex 5.8284 -2.8284 6.0000
    endloop
  endfacet
  facet normal 0.608761 -0.793353 0.000000
    outer loop
      vertex 5.0000 -3.4641 3.0000
      vertex 5.8284 -2.8284 6.0000
      vertex 5.0000 -3.4641 6.0000
    endloop
  endfacet
  facet normal 0.000000 0.000000 -1.000000
    outer loop
      vertex 3.0000 0.0000 3.0000
      vertex 5.8284 -2.8284 3.0000
      vertex 5.0000 -3.4641 3.0000
    endloop
  endfacet
  facet normal 0.000000 0.000000 1.000000
    outer loop
      vertex 3.0000 0.0000 6.0000
      vertex 5.0000 -3.4641 6.0000
      vertex 5.8284 -2.8284 6.0000
    endloop
  endfacet
  facet normal 0.793353 -0.608761 0.000000
    outer loop
      vertex 5.8284 -2.8284 3.0000
      vertex 6.4641 -2.0000 3.0000
      vertex 6.4641 -2.0000 6.0000
    endloop
  endfacet
  facet normal 0.793353 -0.608761 0.000000
    outer loop
      vertex 5.8284 -2.8284 3.0000
      vertex 6.4641 -2.0000 6.0000
      vertex 5.8284 -2.8284 6.0000
    endloop
  endfacet
  facet normal 0.000000 0.000000 -1.000000
    outer loop
      vertex 3.0000 0.0000 3.0000
      vertex 6.4641 -2.0000 3.0000
      vertex 5.8284 -2.8284 3.0000
    endloop
  endfacet
  facet normal 0.000000 0.000000 1.000000
    outer loop
      vertex 3.0000 0.0000 6.0000
      vertex 5.8284 -2.8284 6.0000
      vertex 6.4641 -2.0000 6.0000
    endloop
  endfacet
  facet normal 0.923880 -0.382683 0.000000
    outer loop
      vertex 6.4641 -2.0000 3.0000
      vertex 6.8637 -1.0353 3.0000
      vertex 6.8637 -1.0353 6.0000
    endloop
  endfacet
  facet normal 0.923880 -0.382683 0.000000
    outer loop
      vertex 6.4641 -2.0000 3.0000
      vertex 6.8637 -1.0353 6.0000
      vertex 6.4641 -2.0000 6.0000
    endloop
  endfacet
  facet normal 0.000000 0.000000 -1.000000
    outer loop
      vertex 3.0000 0.0000 3.0000
      vertex 6.8637 -1.0353 3.0000
      vertex 6.4641 -2.0000 3.0000
    endloop
  endfacet
  facet normal 0.000000 0.000000 1.000000
    outer loop
      vertex 3.0000 0.0000 6.0000
      vertex 6.4641 -2.0000 6.0000
      vertex 6.8637 -1.0353 6.0000
    endloop
  endfacet
  facet normal 0.991445 -0.130526 0.000000
    outer loop
      vertex 6.8637 -1.0353 3.0000
      vertex 7.0000 0.0000 3.0000
      vertex 7.0000 0.0000 6.0000
    endloop
  endfacet
  facet normal 0.991445 -0.130526 0.000000
    outer loop
      vertex 6.8637 -1.0353 3.0000
      vertex 7.0000 0.0000 6.0000
      vertex 6.8637 -1.0353 6.0000
    endloop
  endfacet
  facet normal 0.000000 0.000000 -1.000000
    outer loop
      vertex 3.0000 0.0000 3.0000
      vertex 7.0000 0.0000 3.0000
      vertex 6.8637 -1.0353 3.0000
    endloop
  endfacet
  facet normal 0.000000 0.000000 1.000000
    outer loop
      vertex 3.0000 0.0000 6.0000
      vertex 6.8637 -1.0353 6.0000
      vertex 7.0000 0.0000 6.0000
    endloop
  endfacet
endsolid VL53L1X_reference
